0
SECTION
2
HEADER
9
$INSUNITS
70
4
0
ENDSEC
0
SECTION
2
TABLES
0
TABLE
2
LTYPE
0
LTYPE
72
65
70
64
2
CONTINUOUS
3
______
73
0
40
0
0
ENDTAB
0
TABLE
2
LAYER
0
ENDTAB
0
ENDSEC
0
SECTION
2
ENTITIES
0
LINE
8
0
10
-11
20
6.25
11
4
21
6.25
0
LINE
8
0
10
-13
20
8.25
11
-13
21
48.75
0
LINE
8
0
10
-11
20
50.75
11
23
21
50.75
0
LINE
8
0
10
8
20
-12.75
11
30
21
-12.75
0
LINE
8
0
10
32
20
-10.75
11
32
21
-5.75
0
LINE
8
0
10
6
20
4.25
11
6
21
-10.75
0
LINE
8
0
10
34
20
-3.75
11
49
21
-3.75
0
LINE
8
0
10
51
20
-1.75
11
51
21
0.25
0
LINE
8
0
10
44
20
59.75
11
27
21
59.75
0
LINE
8
0
10
25
20
57.75
11
25
21
52.75
0
LINE
8
0
10
51
20
0.25
11
56
21
0.25
0
LINE
8
0
10
70
20
55.75
11
70
21
61.75
0
LINE
8
0
10
68
20
63.75
11
46
21
63.75
0
LINE
8
0
10
44
20
61.75
11
44
21
59.75
0
LINE
8
0
10
72
20
53.75
11
106
21
53.75
0
LINE
8
0
10
108
20
-6.9159992
11
108
21
51.75
0
LINE
8
0
10
58
20
-30
11
58
21
-1.75
0
LINE
8
0
10
90.8968916
20
-32.0437048
11
102.1156574
21
-34.4283271
0
LINE
8
0
10
102.5133072
20
-34.5575313
11
120.6888882
21
-42.6498214
0
LINE
8
0
10
123.3294523
20
-41.6362036
11
132.0742901
21
-21.9949763
0
LINE
8
0
10
131.0606723
20
-19.3544122
11
109.1355814
21
-9.5927328
0
LINE
8
0
10
109.1355814
20
-9.5927328
11
109.1226928
21
-9.6216811
0
LINE
8
0
10
108.2134904
20
-7.8151006
11
109.1226928
21
-9.6216811
0
LINE
8
0
10
60
20
-32
11
90.4810682
21
-32
0
ARC
8
0
10
4
20
4.25
40
2
50
0
51
90
0
ARC
8
0
10
8
20
-10.75
40
2
50
180
51
270
0
ARC
8
0
10
30
20
-10.75
40
2
50
270
51
0
0
ARC
8
0
10
34
20
-5.75
40
2
50
90
51
180
0
ARC
8
0
10
49
20
-1.75
40
2
50
270
51
0
0
ARC
8
0
10
56
20
-1.75
40
2
50
0
51
90
0
ARC
8
0
10
60
20
-30
40
2
50
180
51
270
0
ARC
8
0
10
90.4810682
20
-34
40
2
50
77.9999995
51
90
0
ARC
8
0
10
101.699834
20
-36.3846223
40
2
50
66.0000032
51
77.9999995
0
ARC
8
0
10
121.5023614
20
-40.8227304
40
2
50
246.0000032
51
336.0000032
0
ARC
8
0
10
130.2471991
20
-21.1815031
40
2
50
336.0000032
51
66.0000032
0
ARC
8
0
10
110
20
-6.9159992
40
2
50
180
51
206.7148614
0
ARC
8
0
10
106
20
51.75
40
2
50
0
51
90
0
ARC
8
0
10
72
20
55.75
40
2
50
180
51
270
0
ARC
8
0
10
68
20
61.75
40
2
50
0
51
90
0
ARC
8
0
10
46
20
61.75
40
2
50
90
51
180
0
ARC
8
0
10
27
20
57.75
40
2
50
90
51
180
0
ARC
8
0
10
23
20
52.75
40
2
50
270
51
0
0
ARC
8
0
10
-11
20
48.75
40
2
50
90
51
180
0
ARC
8
0
10
-11
20
8.25
40
2
50
180
51
270
0
LINE
8
0
10
-7
20
12
11
7
21
12
0
LINE
8
0
10
7
20
12
11
7
21
26
0
LINE
8
0
10
7
20
26
11
-7
21
26
0
LINE
8
0
10
-7
20
26
11
-7
21
12
0
LINE
8
0
10
-7
20
31
11
7
21
31
0
LINE
8
0
10
7
20
31
11
7
21
45
0
LINE
8
0
10
7
20
45
11
-7
21
45
0
LINE
8
0
10
-7
20
45
11
-7
21
31
0
LINE
8
0
10
12
20
-7
11
26
21
-7
0
LINE
8
0
10
26
20
-7
11
26
21
7
0
LINE
8
0
10
26
20
7
11
12
21
7
0
LINE
8
0
10
12
20
7
11
12
21
-7
0
LINE
8
0
10
12
20
12
11
26
21
12
0
LINE
8
0
10
26
20
12
11
26
21
26
0
LINE
8
0
10
26
20
26
11
12
21
26
0
LINE
8
0
10
12
20
26
11
12
21
12
0
LINE
8
0
10
12
20
31
11
26
21
31
0
LINE
8
0
10
26
20
31
11
26
21
45
0
LINE
8
0
10
26
20
45
11
12
21
45
0
LINE
8
0
10
12
20
45
11
12
21
31
0
LINE
8
0
10
31
20
2
11
45
21
2
0
LINE
8
0
10
45
20
2
11
45
21
16
0
LINE
8
0
10
45
20
16
11
31
21
16
0
LINE
8
0
10
31
20
16
11
31
21
2
0
LINE
8
0
10
31
20
21
11
45
21
21
0
LINE
8
0
10
45
20
21
11
45
21
35
0
LINE
8
0
10
45
20
35
11
31
21
35
0
LINE
8
0
10
31
20
35
11
31
21
21
0
LINE
8
0
10
31
20
40
11
45
21
40
0
LINE
8
0
10
45
20
40
11
45
21
54
0
LINE
8
0
10
45
20
54
11
31
21
54
0
LINE
8
0
10
31
20
54
11
31
21
40
0
LINE
8
0
10
50
20
6
11
64
21
6
0
LINE
8
0
10
64
20
6
11
64
21
20
0
LINE
8
0
10
64
20
20
11
50
21
20
0
LINE
8
0
10
50
20
20
11
50
21
6
0
LINE
8
0
10
50
20
25
11
64
21
25
0
LINE
8
0
10
64
20
25
11
64
21
39
0
LINE
8
0
10
64
20
39
11
50
21
39
0
LINE
8
0
10
50
20
39
11
50
21
25
0
LINE
8
0
10
50
20
44
11
64
21
44
0
LINE
8
0
10
64
20
44
11
64
21
58
0
LINE
8
0
10
64
20
58
11
50
21
58
0
LINE
8
0
10
50
20
58
11
50
21
44
0
LINE
8
0
10
69
20
-4
11
83
21
-4
0
LINE
8
0
10
83
20
-4
11
83
21
10
0
LINE
8
0
10
83
20
10
11
69
21
10
0
LINE
8
0
10
69
20
10
11
69
21
-4
0
LINE
8
0
10
69
20
15
11
83
21
15
0
LINE
8
0
10
83
20
15
11
83
21
29
0
LINE
8
0
10
83
20
29
11
69
21
29
0
LINE
8
0
10
69
20
29
11
69
21
15
0
LINE
8
0
10
69
20
34
11
83
21
34
0
LINE
8
0
10
83
20
34
11
83
21
48
0
LINE
8
0
10
83
20
48
11
69
21
48
0
LINE
8
0
10
69
20
48
11
69
21
34
0
LINE
8
0
10
88
20
-4
11
102
21
-4
0
LINE
8
0
10
102
20
-4
11
102
21
10
0
LINE
8
0
10
102
20
10
11
88
21
10
0
LINE
8
0
10
88
20
10
11
88
21
-4
0
LINE
8
0
10
88
20
15
11
102
21
15
0
LINE
8
0
10
102
20
15
11
102
21
29
0
LINE
8
0
10
102
20
29
11
88
21
29
0
LINE
8
0
10
88
20
29
11
88
21
15
0
LINE
8
0
10
88
20
34
11
102
21
34
0
LINE
8
0
10
102
20
34
11
102
21
48
0
LINE
8
0
10
102
20
48
11
88
21
48
0
LINE
8
0
10
88
20
48
11
88
21
34
0
LINE
8
0
10
64
20
-24
11
78
21
-24
0
LINE
8
0
10
78
20
-24
11
78
21
-10
0
LINE
8
0
10
78
20
-10
11
64
21
-10
0
LINE
8
0
10
64
20
-10
11
64
21
-24
0
LINE
8
0
10
85.5620245
20
-25.0312854
11
99.2560909
21
-27.942049
0
LINE
8
0
10
99.2560909
20
-27.942049
11
102.1668545
21
-14.2479826
0
LINE
8
0
10
102.1668545
20
-14.2479826
11
88.4727881
21
-11.337219
0
LINE
8
0
10
88.4727881
20
-11.337219
11
85.5620245
21
-25.0312854
0
LINE
8
0
10
106.5838055
20
-30.0756754
11
119.3734419
21
-35.7699884
0
LINE
8
0
10
119.3734419
20
-35.7699884
11
125.0677549
21
-22.980352
0
LINE
8
0
10
125.0677549
20
-22.980352
11
112.2781185
21
-17.286039
0
LINE
8
0
10
112.2781185
20
-17.286039
11
106.5838055
21
-30.0756754
0
ENDSEC
0
EOF