0
SECTION
2
HEADER
9
$INSUNITS
70
4
0
ENDSEC
0
SECTION
2
TABLES
0
TABLE
2
LTYPE
0
LTYPE
72
65
70
64
2
CONTINUOUS
3
______
73
0
40
0
0
ENDTAB
0
TABLE
2
LAYER
0
ENDTAB
0
ENDSEC
0
SECTION
2
ENTITIES
0
LINE
8
0
10
262
20
6.25
11
281
21
6.25
0
LINE
8
0
10
281
20
6.25
11
281
21
50.75
0
LINE
8
0
10
243
20
50.75
11
281
21
50.75
0
LINE
8
0
10
236
20
-12.75
11
262
21
-12.75
0
LINE
8
0
10
262
20
-12.75
11
262
21
6.25
0
LINE
8
0
10
236
20
-3.75
11
236
21
-12.75
0
LINE
8
0
10
217
20
-3.75
11
236
21
-3.75
0
LINE
8
0
10
217
20
0.25
11
217
21
-3.75
0
LINE
8
0
10
243
20
50.75
11
243
21
59.75
0
LINE
8
0
10
243
20
59.75
11
224
21
59.75
0
LINE
8
0
10
212
20
0.25
11
217
21
0.25
0
LINE
8
0
10
224
20
59.75
11
224
21
63.75
0
LINE
8
0
10
224
20
63.75
11
198
21
63.75
0
LINE
8
0
10
198
20
63.75
11
198
21
53.75
0
LINE
8
0
10
160
20
53.75
11
198
21
53.75
0
LINE
8
0
10
160
20
-7.3908964
11
160
21
53.75
0
LINE
8
0
10
165.6787278
20
-34.4720319
11
177.3087233
21
-32
0
LINE
8
0
10
145.484021
20
-43.4632946
11
165.6787278
21
-34.4720319
0
LINE
8
0
10
158.8773072
20
-9.6216811
11
158.8644186
21
-9.5927328
0
LINE
8
0
10
158.8644186
20
-9.5927328
11
135.1122367
21
-20.1678855
0
LINE
8
0
10
135.1122367
20
-20.1678855
11
145.484021
21
-43.4632946
0
LINE
8
0
10
160
20
-7.3908964
11
158.8773072
21
-9.6216811
0
LINE
8
0
10
212
20
0.25
11
212
21
-32
0
LINE
8
0
10
212
20
-32
11
177.3087233
21
-32
0
LINE
8
0
10
261
20
12
11
275
21
12
0
LINE
8
0
10
275
20
12
11
275
21
26
0
LINE
8
0
10
275
20
26
11
261
21
26
0
LINE
8
0
10
261
20
26
11
261
21
12
0
LINE
8
0
10
261
20
31
11
275
21
31
0
LINE
8
0
10
275
20
31
11
275
21
45
0
LINE
8
0
10
275
20
45
11
261
21
45
0
LINE
8
0
10
261
20
45
11
261
21
31
0
LINE
8
0
10
242
20
-7
11
256
21
-7
0
LINE
8
0
10
256
20
-7
11
256
21
7
0
LINE
8
0
10
256
20
7
11
242
21
7
0
LINE
8
0
10
242
20
7
11
242
21
-7
0
LINE
8
0
10
242
20
12
11
256
21
12
0
LINE
8
0
10
256
20
12
11
256
21
26
0
LINE
8
0
10
256
20
26
11
242
21
26
0
LINE
8
0
10
242
20
26
11
242
21
12
0
LINE
8
0
10
242
20
31
11
256
21
31
0
LINE
8
0
10
256
20
31
11
256
21
45
0
LINE
8
0
10
256
20
45
11
242
21
45
0
LINE
8
0
10
242
20
45
11
242
21
31
0
LINE
8
0
10
223
20
2
11
237
21
2
0
LINE
8
0
10
237
20
2
11
237
21
16
0
LINE
8
0
10
237
20
16
11
223
21
16
0
LINE
8
0
10
223
20
16
11
223
21
2
0
LINE
8
0
10
223
20
21
11
237
21
21
0
LINE
8
0
10
237
20
21
11
237
21
35
0
LINE
8
0
10
237
20
35
11
223
21
35
0
LINE
8
0
10
223
20
35
11
223
21
21
0
LINE
8
0
10
223
20
40
11
237
21
40
0
LINE
8
0
10
237
20
40
11
237
21
54
0
LINE
8
0
10
237
20
54
11
223
21
54
0
LINE
8
0
10
223
20
54
11
223
21
40
0
LINE
8
0
10
204
20
6
11
218
21
6
0
LINE
8
0
10
218
20
6
11
218
21
20
0
LINE
8
0
10
218
20
20
11
204
21
20
0
LINE
8
0
10
204
20
20
11
204
21
6
0
LINE
8
0
10
204
20
25
11
218
21
25
0
LINE
8
0
10
218
20
25
11
218
21
39
0
LINE
8
0
10
218
20
39
11
204
21
39
0
LINE
8
0
10
204
20
39
11
204
21
25
0
LINE
8
0
10
204
20
44
11
218
21
44
0
LINE
8
0
10
218
20
44
11
218
21
58
0
LINE
8
0
10
218
20
58
11
204
21
58
0
LINE
8
0
10
204
20
58
11
204
21
44
0
LINE
8
0
10
185
20
-4
11
199
21
-4
0
LINE
8
0
10
199
20
-4
11
199
21
10
0
LINE
8
0
10
199
20
10
11
185
21
10
0
LINE
8
0
10
185
20
10
11
185
21
-4
0
LINE
8
0
10
185
20
15
11
199
21
15
0
LINE
8
0
10
199
20
15
11
199
21
29
0
LINE
8
0
10
199
20
29
11
185
21
29
0
LINE
8
0
10
185
20
29
11
185
21
15
0
LINE
8
0
10
185
20
34
11
199
21
34
0
LINE
8
0
10
199
20
34
11
199
21
48
0
LINE
8
0
10
199
20
48
11
185
21
48
0
LINE
8
0
10
185
20
48
11
185
21
34
0
LINE
8
0
10
166
20
-4
11
180
21
-4
0
LINE
8
0
10
180
20
-4
11
180
21
10
0
LINE
8
0
10
180
20
10
11
166
21
10
0
LINE
8
0
10
166
20
10
11
166
21
-4
0
LINE
8
0
10
166
20
15
11
180
21
15
0
LINE
8
0
10
180
20
15
11
180
21
29
0
LINE
8
0
10
180
20
29
11
166
21
29
0
LINE
8
0
10
166
20
29
11
166
21
15
0
LINE
8
0
10
166
20
34
11
180
21
34
0
LINE
8
0
10
180
20
34
11
180
21
48
0
LINE
8
0
10
180
20
48
11
166
21
48
0
LINE
8
0
10
166
20
48
11
166
21
34
0
LINE
8
0
10
190
20
-24
11
204
21
-24
0
LINE
8
0
10
204
20
-24
11
204
21
-10
0
LINE
8
0
10
204
20
-10
11
190
21
-10
0
LINE
8
0
10
190
20
-10
11
190
21
-24
0
LINE
8
0
10
168.7439091
20
-27.942049
11
182.4379755
21
-25.0312854
0
LINE
8
0
10
182.4379755
20
-25.0312854
11
179.5272119
21
-11.337219
0
LINE
8
0
10
179.5272119
20
-11.337219
11
165.8331455
21
-14.2479826
0
LINE
8
0
10
165.8331455
20
-14.2479826
11
168.7439091
21
-27.942049
0
LINE
8
0
10
148.6265581
20
-35.7699884
11
161.4161945
21
-30.0756754
0
LINE
8
0
10
161.4161945
20
-30.0756754
11
155.7218815
21
-17.286039
0
LINE
8
0
10
155.7218815
20
-17.286039
11
142.9322451
21
-22.980352
0
LINE
8
0
10
142.9322451
20
-22.980352
11
148.6265581
21
-35.7699884
0
ENDSEC
0
EOF