0
SECTION
2
HEADER
9
$INSUNITS
70
4
0
ENDSEC
0
SECTION
2
TABLES
0
TABLE
2
LTYPE
0
LTYPE
72
65
70
64
2
CONTINUOUS
3
______
73
0
40
0
0
ENDTAB
0
TABLE
2
LAYER
0
ENDTAB
0
ENDSEC
0
SECTION
2
ENTITIES
0
LINE
8
0
10
-10.25
20
6
11
2.75
21
6
0
LINE
8
0
10
-13.25
20
9
11
-13.25
21
48
0
LINE
8
0
10
-10.25
20
51
11
21.75
21
51
0
LINE
8
0
10
8.75
20
-13
11
29.25
21
-13
0
LINE
8
0
10
32.25
20
-10
11
32.25
21
-7
0
LINE
8
0
10
5.75
20
3
11
5.75
21
-10
0
LINE
8
0
10
35.25
20
-4
11
48.25
21
-4
0
LINE
8
0
10
51.25
20
-1
11
51.25
21
0
0
LINE
8
0
10
43.75
20
60
11
27.75
21
60
0
LINE
8
0
10
24.75
20
57
11
24.75
21
54
0
LINE
8
0
10
51.25
20
0
11
59.75
21
0
0
LINE
8
0
10
70.25
20
57
11
70.25
21
61
0
LINE
8
0
10
67.25
20
64
11
46.75
21
64
0
LINE
8
0
10
43.75
20
61
11
43.75
21
60
0
LINE
8
0
10
62.75
20
-3
11
62.75
21
-4
0
LINE
8
0
10
73.25
20
54
11
105.25
21
54
0
LINE
8
0
10
108.25
20
-9.4069515
11
108.25
21
51
0
LINE
8
0
10
60.75
20
-30
11
79.7642701
21
-30
0
LINE
8
0
10
62.75
20
-4
11
60.75
21
-4
0
LINE
8
0
10
57.75
20
-7
11
57.75
21
-27
0
LINE
8
0
10
80.3880052
20
-30.0655572
11
101.9351699
21
-34.6455484
0
LINE
8
0
10
108.8845829
20
-9.5418363
11
108.25
21
-9.4069515
0
LINE
8
0
10
102.5316446
20
-34.8393548
11
119.902045
21
-42.5731553
0
LINE
8
0
10
123.8628912
20
-41.0527287
11
131.997624
21
-22.7818195
0
LINE
8
0
10
130.4771974
20
-18.8209733
11
109.0088792
21
-9.2626622
0
LINE
8
0
10
109.0088792
20
-9.2626622
11
108.8845829
21
-9.5418363
0
ARC
8
0
10
2.75
20
3
40
3
50
0
51
90
0
ARC
8
0
10
8.75
20
-10
40
3
50
180
51
270
0
ARC
8
0
10
29.25
20
-10
40
3
50
270
51
0
0
ARC
8
0
10
35.25
20
-7
40
3
50
90
51
180
0
ARC
8
0
10
48.25
20
-1
40
3
50
270
51
0
0
ARC
8
0
10
59.75
20
-3
40
3
50
0
51
90
0
ARC
8
0
10
60.75
20
-7
40
3
50
90
51
180
0
ARC
8
0
10
60.75
20
-27
40
3
50
180
51
270
0
ARC
8
0
10
79.7642701
20
-33
40
3
50
77.9999995
51
90
0
ARC
8
0
10
101.3114348
20
-37.5799912
40
3
50
66.0000032
51
77.9999995
0
ARC
8
0
10
121.1222547
20
-39.8325189
40
3
50
246.0000032
51
336.0000032
0
ARC
8
0
10
129.2569876
20
-21.5616097
40
3
50
336.0000032
51
66.0000032
0
ARC
8
0
10
105.25
20
51
40
3
50
0
51
90
0
ARC
8
0
10
73.25
20
57
40
3
50
180
51
270
0
ARC
8
0
10
67.25
20
61
40
3
50
0
51
90
0
ARC
8
0
10
46.75
20
61
40
3
50
90
51
180
0
ARC
8
0
10
27.75
20
57
40
3
50
90
51
180
0
ARC
8
0
10
21.75
20
54
40
3
50
270
51
0
0
ARC
8
0
10
-10.25
20
48
40
3
50
90
51
180
0
ARC
8
0
10
-10.25
20
9
40
3
50
180
51
270
0
LINE
8
0
10
-6
20
12
11
6
21
12
0
LINE
8
0
10
7
20
13
11
7
21
25
0
LINE
8
0
10
6
20
26
11
-6
21
26
0
LINE
8
0
10
-7
20
25
11
-7
21
13
0
LINE
8
0
10
-6
20
31
11
6
21
31
0
LINE
8
0
10
7
20
32
11
7
21
44
0
LINE
8
0
10
6
20
45
11
-6
21
45
0
LINE
8
0
10
-7
20
44
11
-7
21
32
0
LINE
8
0
10
13
20
-7
11
25
21
-7
0
LINE
8
0
10
26
20
-6
11
26
21
6
0
LINE
8
0
10
25
20
7
11
13
21
7
0
LINE
8
0
10
12
20
6
11
12
21
-6
0
LINE
8
0
10
13
20
12
11
25
21
12
0
LINE
8
0
10
26
20
13
11
26
21
25
0
LINE
8
0
10
25
20
26
11
13
21
26
0
LINE
8
0
10
12
20
25
11
12
21
13
0
LINE
8
0
10
13
20
31
11
25
21
31
0
LINE
8
0
10
26
20
32
11
26
21
44
0
LINE
8
0
10
25
20
45
11
13
21
45
0
LINE
8
0
10
12
20
44
11
12
21
32
0
LINE
8
0
10
32
20
2
11
44
21
2
0
LINE
8
0
10
45
20
3
11
45
21
15
0
LINE
8
0
10
44
20
16
11
32
21
16
0
LINE
8
0
10
31
20
15
11
31
21
3
0
LINE
8
0
10
32
20
21
11
44
21
21
0
LINE
8
0
10
45
20
22
11
45
21
34
0
LINE
8
0
10
44
20
35
11
32
21
35
0
LINE
8
0
10
31
20
34
11
31
21
22
0
LINE
8
0
10
32
20
40
11
44
21
40
0
LINE
8
0
10
45
20
41
11
45
21
53
0
LINE
8
0
10
44
20
54
11
32
21
54
0
LINE
8
0
10
31
20
53
11
31
21
41
0
LINE
8
0
10
51
20
6
11
63
21
6
0
LINE
8
0
10
64
20
7
11
64
21
19
0
LINE
8
0
10
63
20
20
11
51
21
20
0
LINE
8
0
10
50
20
19
11
50
21
7
0
LINE
8
0
10
51
20
25
11
63
21
25
0
LINE
8
0
10
64
20
26
11
64
21
38
0
LINE
8
0
10
63
20
39
11
51
21
39
0
LINE
8
0
10
50
20
38
11
50
21
26
0
LINE
8
0
10
51
20
44
11
63
21
44
0
LINE
8
0
10
64
20
45
11
64
21
57
0
LINE
8
0
10
63
20
58
11
51
21
58
0
LINE
8
0
10
50
20
57
11
50
21
45
0
LINE
8
0
10
70
20
-4
11
82
21
-4
0
LINE
8
0
10
83
20
-3
11
83
21
9
0
LINE
8
0
10
82
20
10
11
70
21
10
0
LINE
8
0
10
69
20
9
11
69
21
-3
0
LINE
8
0
10
70
20
15
11
82
21
15
0
LINE
8
0
10
83
20
16
11
83
21
28
0
LINE
8
0
10
82
20
29
11
70
21
29
0
LINE
8
0
10
69
20
28
11
69
21
16
0
LINE
8
0
10
70
20
34
11
82
21
34
0
LINE
8
0
10
83
20
35
11
83
21
47
0
LINE
8
0
10
82
20
48
11
70
21
48
0
LINE
8
0
10
69
20
47
11
69
21
35
0
LINE
8
0
10
89
20
-4
11
101
21
-4
0
LINE
8
0
10
102
20
-3
11
102
21
9
0
LINE
8
0
10
101
20
10
11
89
21
10
0
LINE
8
0
10
88
20
9
11
88
21
-3
0
LINE
8
0
10
89
20
15
11
101
21
15
0
LINE
8
0
10
102
20
16
11
102
21
28
0
LINE
8
0
10
101
20
29
11
89
21
29
0
LINE
8
0
10
88
20
28
11
88
21
16
0
LINE
8
0
10
89
20
34
11
101
21
34
0
LINE
8
0
10
102
20
35
11
102
21
47
0
LINE
8
0
10
101
20
48
11
89
21
48
0
LINE
8
0
10
88
20
47
11
88
21
35
0
LINE
8
0
10
65
20
-24
11
77
21
-24
0
LINE
8
0
10
78
20
-23
11
78
21
-11
0
LINE
8
0
10
77
20
-10
11
65
21
-10
0
LINE
8
0
10
64
20
-11
11
64
21
-23
0
LINE
8
0
10
86.5401721
20
-25.2391971
11
98.2779433
21
-27.7341373
0
LINE
8
0
10
99.4640026
20
-26.9639014
11
101.9589428
21
-15.2261302
0
LINE
8
0
10
101.1887069
20
-14.0400709
11
89.4509357
21
-11.5451307
0
LINE
8
0
10
88.2648764
20
-12.3153666
11
85.7699362
21
-24.0531378
0
LINE
8
0
10
107.497351
20
-30.4824121
11
118.4598965
21
-35.3632518
0
LINE
8
0
10
119.7801786
20
-34.8564429
11
124.6610183
21
-23.8938974
0
LINE
8
0
10
124.1542094
20
-22.5736153
11
113.1916639
21
-17.6927756
0
LINE
8
0
10
111.8713818
20
-18.1995845
11
106.9905421
21
-29.16213
0
ARC
8
0
10
6
20
13
40
1
50
270
51
0
0
ARC
8
0
10
6
20
25
40
1
50
0
51
90
0
ARC
8
0
10
-6
20
25
40
1
50
90
51
180
0
ARC
8
0
10
-6
20
13
40
1
50
180
51
270
0
ARC
8
0
10
6
20
32
40
1
50
270
51
0
0
ARC
8
0
10
6
20
44
40
1
50
0
51
90
0
ARC
8
0
10
-6
20
44
40
1
50
90
51
180
0
ARC
8
0
10
-6
20
32
40
1
50
180
51
270
0
ARC
8
0
10
25
20
-6
40
1
50
270
51
0
0
ARC
8
0
10
25
20
6
40
1
50
0
51
90
0
ARC
8
0
10
13
20
6
40
1
50
90
51
180
0
ARC
8
0
10
13
20
-6
40
1
50
180
51
270
0
ARC
8
0
10
25
20
13
40
1
50
270
51
0
0
ARC
8
0
10
25
20
25
40
1
50
0
51
90
0
ARC
8
0
10
13
20
25
40
1
50
90
51
180
0
ARC
8
0
10
13
20
13
40
1
50
180
51
270
0
ARC
8
0
10
25
20
32
40
1
50
270
51
0
0
ARC
8
0
10
25
20
44
40
1
50
0
51
90
0
ARC
8
0
10
13
20
44
40
1
50
90
51
180
0
ARC
8
0
10
13
20
32
40
1
50
180
51
270
0
ARC
8
0
10
44
20
3
40
1
50
270
51
0
0
ARC
8
0
10
44
20
15
40
1
50
0
51
90
0
ARC
8
0
10
32
20
15
40
1
50
90
51
180
0
ARC
8
0
10
32
20
3
40
1
50
180
51
270
0
ARC
8
0
10
44
20
22
40
1
50
270
51
0
0
ARC
8
0
10
44
20
34
40
1
50
0
51
90
0
ARC
8
0
10
32
20
34
40
1
50
90
51
180
0
ARC
8
0
10
32
20
22
40
1
50
180
51
270
0
ARC
8
0
10
44
20
41
40
1
50
270
51
0
0
ARC
8
0
10
44
20
53
40
1
50
0
51
90
0
ARC
8
0
10
32
20
53
40
1
50
90
51
180
0
ARC
8
0
10
32
20
41
40
1
50
180
51
270
0
ARC
8
0
10
63
20
7
40
1
50
270
51
0
0
ARC
8
0
10
63
20
19
40
1
50
0
51
90
0
ARC
8
0
10
51
20
19
40
1
50
90
51
180
0
ARC
8
0
10
51
20
7
40
1
50
180
51
270
0
ARC
8
0
10
63
20
26
40
1
50
270
51
0
0
ARC
8
0
10
63
20
38
40
1
50
0
51
90
0
ARC
8
0
10
51
20
38
40
1
50
90
51
180
0
ARC
8
0
10
51
20
26
40
1
50
180
51
270
0
ARC
8
0
10
63
20
45
40
1
50
270
51
0
0
ARC
8
0
10
63
20
57
40
1
50
0
51
90
0
ARC
8
0
10
51
20
57
40
1
50
90
51
180
0
ARC
8
0
10
51
20
45
40
1
50
180
51
270
0
ARC
8
0
10
82
20
-3
40
1
50
270
51
0
0
ARC
8
0
10
82
20
9
40
1
50
0
51
90
0
ARC
8
0
10
70
20
9
40
1
50
90
51
180
0
ARC
8
0
10
70
20
-3
40
1
50
180
51
270
0
ARC
8
0
10
82
20
16
40
1
50
270
51
0
0
ARC
8
0
10
82
20
28
40
1
50
0
51
90
0
ARC
8
0
10
70
20
28
40
1
50
90
51
180
0
ARC
8
0
10
70
20
16
40
1
50
180
51
270
0
ARC
8
0
10
82
20
35
40
1
50
270
51
0
0
ARC
8
0
10
82
20
47
40
1
50
0
51
90
0
ARC
8
0
10
70
20
47
40
1
50
90
51
180
0
ARC
8
0
10
70
20
35
40
1
50
180
51
270
0
ARC
8
0
10
101
20
-3
40
1
50
270
51
0
0
ARC
8
0
10
101
20
9
40
1
50
0
51
90
0
ARC
8
0
10
89
20
9
40
1
50
90
51
180
0
ARC
8
0
10
89
20
-3
40
1
50
180
51
270
0
ARC
8
0
10
101
20
16
40
1
50
270
51
0
0
ARC
8
0
10
101
20
28
40
1
50
0
51
90
0
ARC
8
0
10
89
20
28
40
1
50
90
51
180
0
ARC
8
0
10
89
20
16
40
1
50
180
51
270
0
ARC
8
0
10
101
20
35
40
1
50
270
51
0
0
ARC
8
0
10
101
20
47
40
1
50
0
51
90
0
ARC
8
0
10
89
20
47
40
1
50
90
51
180
0
ARC
8
0
10
89
20
35
40
1
50
180
51
270
0
ARC
8
0
10
77
20
-23
40
1
50
270
51
0
0
ARC
8
0
10
77
20
-11
40
1
50
0
51
90
0
ARC
8
0
10
65
20
-11
40
1
50
90
51
180
0
ARC
8
0
10
65
20
-23
40
1
50
180
51
270
0
ARC
8
0
10
118.8666331
20
-34.4497063
40
1
50
246.0000032
51
336.0000032
0
ARC
8
0
10
123.7474728
20
-23.4871608
40
1
50
336.0000032
51
66.0000032
0
ARC
8
0
10
112.7849273
20
-18.6063211
40
1
50
66.0000032
51
156.0000032
0
ARC
8
0
10
107.9040876
20
-29.5688666
40
1
50
156.0000032
51
246.0000032
0
ARC
8
0
10
98.485855
20
-26.7559897
40
1
50
257.9999995
51
347.9999995
0
ARC
8
0
10
100.9807952
20
-15.0182185
40
1
50
347.9999995
51
77.9999995
0
ARC
8
0
10
89.243024
20
-12.5232783
40
1
50
77.9999995
51
167.9999995
0
ARC
8
0
10
86.7480838
20
-24.2610495
40
1
50
167.9999995
51
257.9999995
0
ENDSEC
0
EOF