0
SECTION
2
HEADER
9
$INSUNITS
70
4
0
ENDSEC
0
SECTION
2
TABLES
0
TABLE
2
LTYPE
0
LTYPE
72
65
70
64
2
CONTINUOUS
3
______
73
0
40
0
0
ENDTAB
0
TABLE
2
LAYER
0
ENDTAB
0
ENDSEC
0
SECTION
2
ENTITIES
0
LINE
8
0
10
265.25
20
6
11
278.25
21
6
0
LINE
8
0
10
281.25
20
9
11
281.25
21
48
0
LINE
8
0
10
246.25
20
51
11
278.25
21
51
0
LINE
8
0
10
238.75
20
-13
11
259.25
21
-13
0
LINE
8
0
10
262.25
20
-10
11
262.25
21
3
0
LINE
8
0
10
235.75
20
-7
11
235.75
21
-10
0
LINE
8
0
10
216.75
20
-4
11
232.75
21
-4
0
LINE
8
0
10
216.75
20
-3
11
216.75
21
-4
0
LINE
8
0
10
243.25
20
54
11
243.25
21
57
0
LINE
8
0
10
240.25
20
60
11
227.25
21
60
0
LINE
8
0
10
208.25
20
0
11
213.75
21
0
0
LINE
8
0
10
224.25
20
63
11
224.25
21
64
0
LINE
8
0
10
224.25
20
64
11
200.75
21
64
0
LINE
8
0
10
197.75
20
61
11
197.75
21
57
0
LINE
8
0
10
205.25
20
-4
11
205.25
21
-3
0
LINE
8
0
10
162.75
20
54
11
194.75
21
54
0
LINE
8
0
10
159.75
20
-9.4069515
11
159.75
21
51
0
LINE
8
0
10
188.2357299
20
-30
11
207.25
21
-30
0
LINE
8
0
10
210.25
20
-27
11
210.25
21
-7
0
LINE
8
0
10
207.25
20
-4
11
205.25
21
-4
0
LINE
8
0
10
166.0648301
20
-34.6455484
11
187.6119948
21
-30.0655572
0
LINE
8
0
10
159.75
20
-9.4069515
11
159.1154171
21
-9.5418363
0
LINE
8
0
10
148.097955
20
-42.5731553
11
165.4683554
21
-34.8393548
0
LINE
8
0
10
159.1154171
20
-9.5418363
11
158.9911208
21
-9.2626622
0
LINE
8
0
10
158.9911208
20
-9.2626622
11
137.5228026
21
-18.8209733
0
LINE
8
0
10
136.002376
20
-22.7818195
11
144.1371088
21
-41.0527287
0
ARC
8
0
10
278.25
20
9
40
3
50
270
51
0
0
ARC
8
0
10
278.25
20
48
40
3
50
0
51
90
0
ARC
8
0
10
246.25
20
54
40
3
50
180
51
270
0
ARC
8
0
10
240.25
20
57
40
3
50
0
51
90
0
ARC
8
0
10
227.25
20
63
40
3
50
180
51
270
0
ARC
8
0
10
200.75
20
61
40
3
50
90
51
180
0
ARC
8
0
10
194.75
20
57
40
3
50
270
51
0
0
ARC
8
0
10
162.75
20
51
40
3
50
90
51
180
0
ARC
8
0
10
138.7430124
20
-21.5616097
40
3
50
113.9999968
51
203.9999968
0
ARC
8
0
10
146.8777453
20
-39.8325189
40
3
50
203.9999968
51
293.9999968
0
ARC
8
0
10
166.6885652
20
-37.5799912
40
3
50
102.0000005
51
113.9999968
0
ARC
8
0
10
188.2357299
20
-33
40
3
50
90
51
102.0000005
0
ARC
8
0
10
207.25
20
-27
40
3
50
270
51
0
0
ARC
8
0
10
207.25
20
-7
40
3
50
0
51
90
0
ARC
8
0
10
208.25
20
-3
40
3
50
90
51
180
0
ARC
8
0
10
213.75
20
-3
40
3
50
0
51
90
0
ARC
8
0
10
232.75
20
-7
40
3
50
0
51
90
0
ARC
8
0
10
238.75
20
-10
40
3
50
180
51
270
0
ARC
8
0
10
259.25
20
-10
40
3
50
270
51
0
0
ARC
8
0
10
265.25
20
3
40
3
50
90
51
180
0
LINE
8
0
10
262
20
12
11
274
21
12
0
LINE
8
0
10
275
20
13
11
275
21
25
0
LINE
8
0
10
274
20
26
11
262
21
26
0
LINE
8
0
10
261
20
25
11
261
21
13
0
LINE
8
0
10
262
20
31
11
274
21
31
0
LINE
8
0
10
275
20
32
11
275
21
44
0
LINE
8
0
10
274
20
45
11
262
21
45
0
LINE
8
0
10
261
20
44
11
261
21
32
0
LINE
8
0
10
243
20
-7
11
255
21
-7
0
LINE
8
0
10
256
20
-6
11
256
21
6
0
LINE
8
0
10
255
20
7
11
243
21
7
0
LINE
8
0
10
242
20
6
11
242
21
-6
0
LINE
8
0
10
243
20
12
11
255
21
12
0
LINE
8
0
10
256
20
13
11
256
21
25
0
LINE
8
0
10
255
20
26
11
243
21
26
0
LINE
8
0
10
242
20
25
11
242
21
13
0
LINE
8
0
10
243
20
31
11
255
21
31
0
LINE
8
0
10
256
20
32
11
256
21
44
0
LINE
8
0
10
255
20
45
11
243
21
45
0
LINE
8
0
10
242
20
44
11
242
21
32
0
LINE
8
0
10
224
20
2
11
236
21
2
0
LINE
8
0
10
237
20
3
11
237
21
15
0
LINE
8
0
10
236
20
16
11
224
21
16
0
LINE
8
0
10
223
20
15
11
223
21
3
0
LINE
8
0
10
224
20
21
11
236
21
21
0
LINE
8
0
10
237
20
22
11
237
21
34
0
LINE
8
0
10
236
20
35
11
224
21
35
0
LINE
8
0
10
223
20
34
11
223
21
22
0
LINE
8
0
10
224
20
40
11
236
21
40
0
LINE
8
0
10
237
20
41
11
237
21
53
0
LINE
8
0
10
236
20
54
11
224
21
54
0
LINE
8
0
10
223
20
53
11
223
21
41
0
LINE
8
0
10
205
20
6
11
217
21
6
0
LINE
8
0
10
218
20
7
11
218
21
19
0
LINE
8
0
10
217
20
20
11
205
21
20
0
LINE
8
0
10
204
20
19
11
204
21
7
0
LINE
8
0
10
205
20
25
11
217
21
25
0
LINE
8
0
10
218
20
26
11
218
21
38
0
LINE
8
0
10
217
20
39
11
205
21
39
0
LINE
8
0
10
204
20
38
11
204
21
26
0
LINE
8
0
10
205
20
44
11
217
21
44
0
LINE
8
0
10
218
20
45
11
218
21
57
0
LINE
8
0
10
217
20
58
11
205
21
58
0
LINE
8
0
10
204
20
57
11
204
21
45
0
LINE
8
0
10
186
20
-4
11
198
21
-4
0
LINE
8
0
10
199
20
-3
11
199
21
9
0
LINE
8
0
10
198
20
10
11
186
21
10
0
LINE
8
0
10
185
20
9
11
185
21
-3
0
LINE
8
0
10
186
20
15
11
198
21
15
0
LINE
8
0
10
199
20
16
11
199
21
28
0
LINE
8
0
10
198
20
29
11
186
21
29
0
LINE
8
0
10
185
20
28
11
185
21
16
0
LINE
8
0
10
186
20
34
11
198
21
34
0
LINE
8
0
10
199
20
35
11
199
21
47
0
LINE
8
0
10
198
20
48
11
186
21
48
0
LINE
8
0
10
185
20
47
11
185
21
35
0
LINE
8
0
10
167
20
-4
11
179
21
-4
0
LINE
8
0
10
180
20
-3
11
180
21
9
0
LINE
8
0
10
179
20
10
11
167
21
10
0
LINE
8
0
10
166
20
9
11
166
21
-3
0
LINE
8
0
10
167
20
15
11
179
21
15
0
LINE
8
0
10
180
20
16
11
180
21
28
0
LINE
8
0
10
179
20
29
11
167
21
29
0
LINE
8
0
10
166
20
28
11
166
21
16
0
LINE
8
0
10
167
20
34
11
179
21
34
0
LINE
8
0
10
180
20
35
11
180
21
47
0
LINE
8
0
10
179
20
48
11
167
21
48
0
LINE
8
0
10
166
20
47
11
166
21
35
0
LINE
8
0
10
191
20
-24
11
203
21
-24
0
LINE
8
0
10
204
20
-23
11
204
21
-11
0
LINE
8
0
10
203
20
-10
11
191
21
-10
0
LINE
8
0
10
190
20
-11
11
190
21
-23
0
LINE
8
0
10
169.7220567
20
-27.7341373
11
181.4598279
21
-25.2391971
0
LINE
8
0
10
182.2300638
20
-24.0531378
11
179.7351236
21
-12.3153666
0
LINE
8
0
10
178.5490643
20
-11.5451307
11
166.8112931
21
-14.0400709
0
LINE
8
0
10
166.0410572
20
-15.2261302
11
168.5359974
21
-26.9639014
0
LINE
8
0
10
149.5401035
20
-35.3632518
11
160.502649
21
-30.4824121
0
LINE
8
0
10
161.0094579
20
-29.16213
11
156.1286182
21
-18.1995845
0
LINE
8
0
10
154.8083361
20
-17.6927756
11
143.8457906
21
-22.5736153
0
LINE
8
0
10
143.3389817
20
-23.8938974
11
148.2198214
21
-34.8564429
0
ARC
8
0
10
274
20
13
40
1
50
270
51
0
0
ARC
8
0
10
274
20
25
40
1
50
0
51
90
0
ARC
8
0
10
262
20
25
40
1
50
90
51
180
0
ARC
8
0
10
262
20
13
40
1
50
180
51
270
0
ARC
8
0
10
274
20
32
40
1
50
270
51
0
0
ARC
8
0
10
274
20
44
40
1
50
0
51
90
0
ARC
8
0
10
262
20
44
40
1
50
90
51
180
0
ARC
8
0
10
262
20
32
40
1
50
180
51
270
0
ARC
8
0
10
255
20
-6
40
1
50
270
51
0
0
ARC
8
0
10
255
20
6
40
1
50
0
51
90
0
ARC
8
0
10
243
20
6
40
1
50
90
51
180
0
ARC
8
0
10
243
20
-6
40
1
50
180
51
270
0
ARC
8
0
10
255
20
13
40
1
50
270
51
0
0
ARC
8
0
10
255
20
25
40
1
50
0
51
90
0
ARC
8
0
10
243
20
25
40
1
50
90
51
180
0
ARC
8
0
10
243
20
13
40
1
50
180
51
270
0
ARC
8
0
10
255
20
32
40
1
50
270
51
0
0
ARC
8
0
10
255
20
44
40
1
50
0
51
90
0
ARC
8
0
10
243
20
44
40
1
50
90
51
180
0
ARC
8
0
10
243
20
32
40
1
50
180
51
270
0
ARC
8
0
10
236
20
3
40
1
50
270
51
0
0
ARC
8
0
10
236
20
15
40
1
50
0
51
90
0
ARC
8
0
10
224
20
15
40
1
50
90
51
180
0
ARC
8
0
10
224
20
3
40
1
50
180
51
270
0
ARC
8
0
10
236
20
22
40
1
50
270
51
0
0
ARC
8
0
10
236
20
34
40
1
50
0
51
90
0
ARC
8
0
10
224
20
34
40
1
50
90
51
180
0
ARC
8
0
10
224
20
22
40
1
50
180
51
270
0
ARC
8
0
10
236
20
41
40
1
50
270
51
0
0
ARC
8
0
10
236
20
53
40
1
50
0
51
90
0
ARC
8
0
10
224
20
53
40
1
50
90
51
180
0
ARC
8
0
10
224
20
41
40
1
50
180
51
270
0
ARC
8
0
10
217
20
7
40
1
50
270
51
0
0
ARC
8
0
10
217
20
19
40
1
50
0
51
90
0
ARC
8
0
10
205
20
19
40
1
50
90
51
180
0
ARC
8
0
10
205
20
7
40
1
50
180
51
270
0
ARC
8
0
10
217
20
26
40
1
50
270
51
0
0
ARC
8
0
10
217
20
38
40
1
50
0
51
90
0
ARC
8
0
10
205
20
38
40
1
50
90
51
180
0
ARC
8
0
10
205
20
26
40
1
50
180
51
270
0
ARC
8
0
10
217
20
45
40
1
50
270
51
0
0
ARC
8
0
10
217
20
57
40
1
50
0
51
90
0
ARC
8
0
10
205
20
57
40
1
50
90
51
180
0
ARC
8
0
10
205
20
45
40
1
50
180
51
270
0
ARC
8
0
10
198
20
-3
40
1
50
270
51
0
0
ARC
8
0
10
198
20
9
40
1
50
0
51
90
0
ARC
8
0
10
186
20
9
40
1
50
90
51
180
0
ARC
8
0
10
186
20
-3
40
1
50
180
51
270
0
ARC
8
0
10
198
20
16
40
1
50
270
51
0
0
ARC
8
0
10
198
20
28
40
1
50
0
51
90
0
ARC
8
0
10
186
20
28
40
1
50
90
51
180
0
ARC
8
0
10
186
20
16
40
1
50
180
51
270
0
ARC
8
0
10
198
20
35
40
1
50
270
51
0
0
ARC
8
0
10
198
20
47
40
1
50
0
51
90
0
ARC
8
0
10
186
20
47
40
1
50
90
51
180
0
ARC
8
0
10
186
20
35
40
1
50
180
51
270
0
ARC
8
0
10
179
20
-3
40
1
50
270
51
0
0
ARC
8
0
10
179
20
9
40
1
50
0
51
90
0
ARC
8
0
10
167
20
9
40
1
50
90
51
180
0
ARC
8
0
10
167
20
-3
40
1
50
180
51
270
0
ARC
8
0
10
179
20
16
40
1
50
270
51
0
0
ARC
8
0
10
179
20
28
40
1
50
0
51
90
0
ARC
8
0
10
167
20
28
40
1
50
90
51
180
0
ARC
8
0
10
167
20
16
40
1
50
180
51
270
0
ARC
8
0
10
179
20
35
40
1
50
270
51
0
0
ARC
8
0
10
179
20
47
40
1
50
0
51
90
0
ARC
8
0
10
167
20
47
40
1
50
90
51
180
0
ARC
8
0
10
167
20
35
40
1
50
180
51
270
0
ARC
8
0
10
203
20
-23
40
1
50
270
51
0
0
ARC
8
0
10
203
20
-11
40
1
50
0
51
90
0
ARC
8
0
10
191
20
-11
40
1
50
90
51
180
0
ARC
8
0
10
191
20
-23
40
1
50
180
51
270
0
ARC
8
0
10
160.0959124
20
-29.5688666
40
1
50
293.9999968
51
23.9999968
0
ARC
8
0
10
155.2150727
20
-18.6063211
40
1
50
23.9999968
51
113.9999968
0
ARC
8
0
10
144.2525272
20
-23.4871608
40
1
50
113.9999968
51
203.9999968
0
ARC
8
0
10
149.1333669
20
-34.4497063
40
1
50
203.9999968
51
293.9999968
0
ARC
8
0
10
181.2519162
20
-24.2610495
40
1
50
282.0000005
51
12.0000005
0
ARC
8
0
10
178.756976
20
-12.5232783
40
1
50
12.0000005
51
102.0000005
0
ARC
8
0
10
167.0192048
20
-15.0182185
40
1
50
102.0000005
51
192.0000005
0
ARC
8
0
10
169.514145
20
-26.7559897
40
1
50
192.0000005
51
282.0000005
0
ENDSEC
0
EOF