0
SECTION
2
HEADER
9
$INSUNITS
70
4
0
ENDSEC
0
SECTION
2
TABLES
0
TABLE
2
LTYPE
0
LTYPE
72
65
70
64
2
CONTINUOUS
3
______
73
0
40
0
0
ENDTAB
0
TABLE
2
LAYER
0
ENDTAB
0
ENDSEC
0
SECTION
2
ENTITIES
0
LINE
8
0
10
263.25
20
8
11
276.25
21
8
0
LINE
8
0
10
279.25
20
11
11
279.25
21
46
0
LINE
8
0
10
244.25
20
49
11
276.25
21
49
0
LINE
8
0
10
240.75
20
-11
11
257.25
21
-11
0
LINE
8
0
10
260.25
20
-8
11
260.25
21
5
0
LINE
8
0
10
237.75
20
-5
11
237.75
21
-8
0
LINE
8
0
10
218.75
20
-2
11
234.75
21
-2
0
LINE
8
0
10
218.75
20
-1
11
218.75
21
-2
0
LINE
8
0
10
241.25
20
52
11
241.25
21
55
0
LINE
8
0
10
238.25
20
58
11
225.25
21
58
0
LINE
8
0
10
206.25
20
2
11
215.75
21
2
0
LINE
8
0
10
222.25
20
61
11
222.25
21
62
0
LINE
8
0
10
222.25
20
62
11
202.75
21
62
0
LINE
8
0
10
199.75
20
59
11
199.75
21
55
0
LINE
8
0
10
203.25
20
-6
11
203.25
21
-1
0
LINE
8
0
10
164.75
20
52
11
196.75
21
52
0
LINE
8
0
10
161.75
20
-7.9864365
11
161.75
21
49
0
LINE
8
0
10
187.4139428
20
-28
11
205.25
21
-28
0
LINE
8
0
10
208.25
20
-25
11
208.25
21
-9
0
LINE
8
0
10
205.25
20
-6
11
203.25
21
-6
0
LINE
8
0
10
165.4184286
20
-32.7382641
11
187.4267496
21
-28.0602511
0
LINE
8
0
10
187.4267496
20
-28.0602511
11
187.4139428
21
-28
0
LINE
8
0
10
165.4056218
20
-32.678013
11
165.4184286
21
-32.7382641
0
LINE
8
0
10
149.1115727
20
-39.9325911
11
165.4056218
21
-32.678013
0
LINE
8
0
10
152.2613237
20
-14.4482335
11
140.1633668
21
-19.8345909
0
LINE
8
0
10
138.6429402
20
-23.7954371
11
145.1507265
21
-38.4121645
0
LINE
8
0
10
161.75
20
-7.9864365
11
161.7
21
-8
0
LINE
8
0
10
161.7
20
-8
11
158.5647246
21
-11.352138
0
LINE
8
0
10
157.6069643
20
-12.0376683
11
152.2743621
21
-14.4423912
0
ARC
8
0
10
276.25
20
11
40
3
50
270
51
0
0
ARC
8
0
10
276.25
20
46
40
3
50
0
51
90
0
ARC
8
0
10
244.25
20
52
40
3
50
180
51
270
0
ARC
8
0
10
238.25
20
55
40
3
50
0
51
90
0
ARC
8
0
10
225.25
20
61
40
3
50
180
51
270
0
ARC
8
0
10
202.75
20
59
40
3
50
90
51
180
0
ARC
8
0
10
196.75
20
55
40
3
50
270
51
0
0
ARC
8
0
10
164.75
20
49
40
3
50
90
51
180
0
ARC
8
0
10
156.3737162
20
-9.3028742
40
3
50
294.2728678
51
316.914581
0
ARC
8
0
10
151.0411139
20
-11.7075971
40
3
50
293.9999968
51
294.2728678
0
ARC
8
0
10
141.3835766
20
-22.5752274
40
3
50
113.9999968
51
203.9999968
0
ARC
8
0
10
147.8913629
20
-37.1919547
40
3
50
203.9999968
51
293.9999968
0
ARC
8
0
10
205.25
20
-25
40
3
50
270
51
0
0
ARC
8
0
10
205.25
20
-9
40
3
50
0
51
90
0
ARC
8
0
10
206.25
20
-1
40
3
50
90
51
180
0
ARC
8
0
10
215.75
20
-1
40
3
50
0
51
90
0
ARC
8
0
10
234.75
20
-5
40
3
50
0
51
90
0
ARC
8
0
10
240.75
20
-8
40
3
50
180
51
270
0
ARC
8
0
10
257.25
20
-8
40
3
50
270
51
0
0
ARC
8
0
10
263.25
20
5
40
3
50
90
51
180
0
ENDSEC
0
EOF