0
SECTION
2
HEADER
9
$INSUNITS
70
4
0
ENDSEC
0
SECTION
2
TABLES
0
TABLE
2
LTYPE
0
LTYPE
72
65
70
64
2
CONTINUOUS
3
______
73
0
40
0
0
ENDTAB
0
TABLE
2
LAYER
0
ENDTAB
0
ENDSEC
0
SECTION
2
ENTITIES
0
LINE
8
0
10
-8.25
20
8
11
4.75
21
8
0
LINE
8
0
10
-11.25
20
11
11
-11.25
21
46
0
LINE
8
0
10
-8.25
20
49
11
23.75
21
49
0
LINE
8
0
10
10.75
20
-11
11
27.25
21
-11
0
LINE
8
0
10
30.25
20
-8
11
30.25
21
-5
0
LINE
8
0
10
7.75
20
5
11
7.75
21
-8
0
LINE
8
0
10
33.25
20
-2
11
46.25
21
-2
0
LINE
8
0
10
49.25
20
1
11
49.25
21
2
0
LINE
8
0
10
45.75
20
58
11
29.75
21
58
0
LINE
8
0
10
26.75
20
55
11
26.75
21
52
0
LINE
8
0
10
49.25
20
2
11
61.75
21
2
0
LINE
8
0
10
68.25
20
55
11
68.25
21
59
0
LINE
8
0
10
65.25
20
62
11
48.75
21
62
0
LINE
8
0
10
45.75
20
59
11
45.75
21
58
0
LINE
8
0
10
64.75
20
-1
11
64.75
21
-3
0
LINE
8
0
10
71.25
20
52
11
103.25
21
52
0
LINE
8
0
10
106.25
20
-7.9864365
11
106.25
21
49
0
LINE
8
0
10
62.75
20
-28
11
80.5860572
21
-28
0
LINE
8
0
10
61.75
20
-6
11
59.75
21
-6
0
LINE
8
0
10
59.75
20
-6
11
59.75
21
-25
0
LINE
8
0
10
80.5732504
20
-28.0602511
11
102.5815714
21
-32.7382641
0
LINE
8
0
10
102.5815714
20
-32.7382641
11
102.5943782
21
-32.678013
0
LINE
8
0
10
80.5860572
20
-28
11
80.5732504
21
-28.0602511
0
LINE
8
0
10
102.5943782
20
-32.678013
11
118.8884273
21
-39.9325911
0
LINE
8
0
10
122.8492735
20
-38.4121645
11
129.3570598
21
-23.7954371
0
LINE
8
0
10
127.8366332
20
-19.8345909
11
115.7386763
21
-14.4482335
0
LINE
8
0
10
106.25
20
-7.9864365
11
106.3
21
-8
0
LINE
8
0
10
106.3
20
-8
11
109.4352754
21
-11.352138
0
LINE
8
0
10
110.3930357
20
-12.0376683
11
115.7256379
21
-14.4423912
0
ARC
8
0
10
4.75
20
5
40
3
50
0
51
90
0
ARC
8
0
10
10.75
20
-8
40
3
50
180
51
270
0
ARC
8
0
10
27.25
20
-8
40
3
50
270
51
0
0
ARC
8
0
10
33.25
20
-5
40
3
50
90
51
180
0
ARC
8
0
10
46.25
20
1
40
3
50
270
51
0
0
ARC
8
0
10
61.75
20
-1
40
3
50
0
51
90
0
ARC
8
0
10
61.75
20
-3
40
3
50
270
51
0
0
ARC
8
0
10
62.75
20
-25
40
3
50
180
51
270
0
ARC
8
0
10
120.1086371
20
-37.1919547
40
3
50
246.0000032
51
336.0000032
0
ARC
8
0
10
126.6164234
20
-22.5752274
40
3
50
336.0000032
51
66.0000032
0
ARC
8
0
10
116.9588861
20
-11.7075971
40
3
50
245.7271322
51
246.0000032
0
ARC
8
0
10
111.6262838
20
-9.3028742
40
3
50
223.085419
51
245.7271322
0
ARC
8
0
10
103.25
20
49
40
3
50
0
51
90
0
ARC
8
0
10
71.25
20
55
40
3
50
180
51
270
0
ARC
8
0
10
65.25
20
59
40
3
50
0
51
90
0
ARC
8
0
10
48.75
20
59
40
3
50
90
51
180
0
ARC
8
0
10
29.75
20
55
40
3
50
90
51
180
0
ARC
8
0
10
23.75
20
52
40
3
50
270
51
0
0
ARC
8
0
10
-8.25
20
46
40
3
50
90
51
180
0
ARC
8
0
10
-8.25
20
11
40
3
50
180
51
270
0
ENDSEC
0
EOF