0
SECTION
2
HEADER
9
$INSUNITS
70
4
0
ENDSEC
0
SECTION
2
TABLES
0
TABLE
2
LTYPE
0
LTYPE
72
65
70
64
2
CONTINUOUS
3
______
73
0
40
0
0
ENDTAB
0
TABLE
2
LAYER
0
ENDTAB
0
ENDSEC
0
SECTION
2
ENTITIES
0
LINE
8
0
10
-7
20
12
11
7
21
12
0
LINE
8
0
10
7
20
12
11
7
21
26
0
LINE
8
0
10
7
20
26
11
-7
21
26
0
LINE
8
0
10
-7
20
26
11
-7
21
12
0
LINE
8
0
10
-7
20
31
11
7
21
31
0
LINE
8
0
10
7
20
31
11
7
21
45
0
LINE
8
0
10
7
20
45
11
-7
21
45
0
LINE
8
0
10
-7
20
45
11
-7
21
31
0
LINE
8
0
10
12
20
-7
11
26
21
-7
0
LINE
8
0
10
26
20
-7
11
26
21
7
0
LINE
8
0
10
26
20
7
11
12
21
7
0
LINE
8
0
10
12
20
7
11
12
21
-7
0
LINE
8
0
10
12
20
12
11
26
21
12
0
LINE
8
0
10
26
20
12
11
26
21
26
0
LINE
8
0
10
26
20
26
11
12
21
26
0
LINE
8
0
10
12
20
26
11
12
21
12
0
LINE
8
0
10
12
20
31
11
26
21
31
0
LINE
8
0
10
26
20
31
11
26
21
45
0
LINE
8
0
10
26
20
45
11
12
21
45
0
LINE
8
0
10
12
20
45
11
12
21
31
0
LINE
8
0
10
31
20
2
11
45
21
2
0
LINE
8
0
10
45
20
2
11
45
21
16
0
LINE
8
0
10
45
20
16
11
31
21
16
0
LINE
8
0
10
31
20
16
11
31
21
2
0
LINE
8
0
10
31
20
21
11
45
21
21
0
LINE
8
0
10
45
20
21
11
45
21
35
0
LINE
8
0
10
45
20
35
11
31
21
35
0
LINE
8
0
10
31
20
35
11
31
21
21
0
LINE
8
0
10
31
20
40
11
45
21
40
0
LINE
8
0
10
45
20
40
11
45
21
54
0
LINE
8
0
10
45
20
54
11
31
21
54
0
LINE
8
0
10
31
20
54
11
31
21
40
0
LINE
8
0
10
50
20
6
11
64
21
6
0
LINE
8
0
10
64
20
6
11
64
21
20
0
LINE
8
0
10
64
20
20
11
50
21
20
0
LINE
8
0
10
50
20
20
11
50
21
6
0
LINE
8
0
10
50
20
25
11
64
21
25
0
LINE
8
0
10
64
20
25
11
64
21
39
0
LINE
8
0
10
64
20
39
11
50
21
39
0
LINE
8
0
10
50
20
39
11
50
21
25
0
LINE
8
0
10
50
20
44
11
64
21
44
0
LINE
8
0
10
64
20
44
11
64
21
58
0
LINE
8
0
10
64
20
58
11
50
21
58
0
LINE
8
0
10
50
20
58
11
50
21
44
0
LINE
8
0
10
69
20
-4
11
83
21
-4
0
LINE
8
0
10
83
20
-4
11
83
21
10
0
LINE
8
0
10
83
20
10
11
69
21
10
0
LINE
8
0
10
69
20
10
11
69
21
-4
0
LINE
8
0
10
69
20
15
11
83
21
15
0
LINE
8
0
10
83
20
15
11
83
21
29
0
LINE
8
0
10
83
20
29
11
69
21
29
0
LINE
8
0
10
69
20
29
11
69
21
15
0
LINE
8
0
10
69
20
34
11
83
21
34
0
LINE
8
0
10
83
20
34
11
83
21
48
0
LINE
8
0
10
83
20
48
11
69
21
48
0
LINE
8
0
10
69
20
48
11
69
21
34
0
LINE
8
0
10
88
20
-4
11
102
21
-4
0
LINE
8
0
10
102
20
-4
11
102
21
10
0
LINE
8
0
10
102
20
10
11
88
21
10
0
LINE
8
0
10
88
20
10
11
88
21
-4
0
LINE
8
0
10
88
20
15
11
102
21
15
0
LINE
8
0
10
102
20
15
11
102
21
29
0
LINE
8
0
10
102
20
29
11
88
21
29
0
LINE
8
0
10
88
20
29
11
88
21
15
0
LINE
8
0
10
88
20
34
11
102
21
34
0
LINE
8
0
10
102
20
34
11
102
21
48
0
LINE
8
0
10
102
20
48
11
88
21
48
0
LINE
8
0
10
88
20
48
11
88
21
34
0
LINE
8
0
10
64
20
-24
11
78
21
-24
0
LINE
8
0
10
78
20
-24
11
78
21
-10
0
LINE
8
0
10
78
20
-10
11
64
21
-10
0
LINE
8
0
10
64
20
-10
11
64
21
-24
0
LINE
8
0
10
85.5620245
20
-25.0312854
11
99.2560909
21
-27.942049
0
LINE
8
0
10
99.2560909
20
-27.942049
11
102.1668545
21
-14.2479826
0
LINE
8
0
10
102.1668545
20
-14.2479826
11
88.4727881
21
-11.337219
0
LINE
8
0
10
88.4727881
20
-11.337219
11
85.5620245
21
-25.0312854
0
LINE
8
0
10
106.5838055
20
-30.0756754
11
119.3734419
21
-35.7699884
0
LINE
8
0
10
119.3734419
20
-35.7699884
11
125.0677549
21
-22.980352
0
LINE
8
0
10
125.0677549
20
-22.980352
11
112.2781185
21
-17.286039
0
LINE
8
0
10
112.2781185
20
-17.286039
11
106.5838055
21
-30.0756754
0
ENDSEC
0
EOF