0
SECTION
2
HEADER
9
$INSUNITS
70
4
0
ENDSEC
0
SECTION
2
TABLES
0
TABLE
2
LTYPE
0
LTYPE
72
65
70
64
2
CONTINUOUS
3
______
73
0
40
0
0
ENDTAB
0
TABLE
2
LAYER
0
ENDTAB
0
ENDSEC
0
SECTION
2
ENTITIES
0
LINE
8
0
10
-9.25
20
8
11
5.75
21
8
0
LINE
8
0
10
-11.25
20
10
11
-11.25
21
47
0
LINE
8
0
10
-9.25
20
49
11
24.75
21
49
0
LINE
8
0
10
9.75
20
-11
11
28.25
21
-11
0
LINE
8
0
10
30.25
20
-9
11
30.25
21
-4
0
LINE
8
0
10
7.75
20
6
11
7.75
21
-9
0
LINE
8
0
10
32.25
20
-2
11
47.25
21
-2
0
LINE
8
0
10
49.25
20
0
11
49.25
21
2
0
LINE
8
0
10
45.75
20
58
11
28.75
21
58
0
LINE
8
0
10
26.75
20
56
11
26.75
21
51
0
LINE
8
0
10
49.25
20
2
11
62.75
21
2
0
LINE
8
0
10
68.25
20
54
11
68.25
21
60
0
LINE
8
0
10
66.25
20
62
11
47.75
21
62
0
LINE
8
0
10
45.75
20
60
11
45.75
21
58
0
LINE
8
0
10
82.25
20
-8
11
84.8371884
21
-8
0
LINE
8
0
10
64.75
20
0
11
64.75
21
-4
0
LINE
8
0
10
70.25
20
52
11
104.25
21
52
0
LINE
8
0
10
92.0113446
20
-8
11
104.25
21
-8
0
LINE
8
0
10
106.25
20
-6
11
106.25
21
50
0
LINE
8
0
10
61.75
20
-28
11
80.5860572
21
-28
0
LINE
8
0
10
82.25
20
-20.1717645
11
82.25
21
-8
0
LINE
8
0
10
62.75
20
-6
11
61.75
21
-6
0
LINE
8
0
10
59.75
20
-8
11
59.75
21
-26
0
LINE
8
0
10
80.5732504
20
-28.0602511
11
102.5815714
21
-32.7382641
0
LINE
8
0
10
102.5815714
20
-32.7382641
11
102.5943782
21
-32.678013
0
LINE
8
0
10
104.258321
20
-24.8497773
11
106.7398052
21
-13.1753121
0
LINE
8
0
10
105.1993334
20
-10.8031935
11
92.0113446
21
-8
0
LINE
8
0
10
84.8371884
20
-8
11
82.25
21
-20.1717645
0
LINE
8
0
10
80.5860572
20
-28
11
80.5732504
21
-28.0602511
0
LINE
8
0
10
102.5943782
20
-32.678013
11
119.8019727
21
-40.3393278
0
LINE
8
0
10
122.4425368
20
-39.32571
11
129.7637965
21
-22.8818917
0
LINE
8
0
10
128.7501787
20
-20.2413276
11
111.8495877
21
-12.7166996
0
LINE
8
0
10
109.2090236
20
-13.7303174
11
104.258321
21
-24.8497773
0
ARC
8
0
10
5.75
20
6
40
2
50
0
51
90
0
ARC
8
0
10
9.75
20
-9
40
2
50
180
51
270
0
ARC
8
0
10
28.25
20
-9
40
2
50
270
51
0
0
ARC
8
0
10
32.25
20
-4
40
2
50
90
51
180
0
ARC
8
0
10
47.25
20
0
40
2
50
270
51
0
0
ARC
8
0
10
62.75
20
0
40
2
50
0
51
90
0
ARC
8
0
10
62.75
20
-4
40
2
50
270
51
0
0
ARC
8
0
10
61.75
20
-8
40
2
50
90
51
180
0
ARC
8
0
10
61.75
20
-26
40
2
50
180
51
270
0
ARC
8
0
10
120.6154459
20
-38.5122368
40
2
50
246.0000032
51
336.0000032
0
ARC
8
0
10
127.9367055
20
-22.0684185
40
2
50
336.0000032
51
66.0000032
0
ARC
8
0
10
111.0361145
20
-14.5437906
40
2
50
66.0000032
51
156.0000032
0
ARC
8
0
10
104.78351
20
-12.7594887
40
2
50
347.9999995
51
77.9999995
0
ARC
8
0
10
104.25
20
-6
40
2
50
270
51
0
0
ARC
8
0
10
104.25
20
50
40
2
50
0
51
90
0
ARC
8
0
10
70.25
20
54
40
2
50
180
51
270
0
ARC
8
0
10
66.25
20
60
40
2
50
0
51
90
0
ARC
8
0
10
47.75
20
60
40
2
50
90
51
180
0
ARC
8
0
10
28.75
20
56
40
2
50
90
51
180
0
ARC
8
0
10
24.75
20
51
40
2
50
270
51
0
0
ARC
8
0
10
-9.25
20
47
40
2
50
90
51
180
0
ARC
8
0
10
-9.25
20
10
40
2
50
180
51
270
0
ENDSEC
0
EOF