0
SECTION
2
HEADER
9
$INSUNITS
70
4
0
ENDSEC
0
SECTION
2
TABLES
0
TABLE
2
LTYPE
0
LTYPE
72
65
70
64
2
CONTINUOUS
3
______
73
0
40
0
0
ENDTAB
0
TABLE
2
LAYER
0
ENDTAB
0
ENDSEC
0
SECTION
2
ENTITIES
0
LINE
8
0
10
262.25
20
8
11
277.25
21
8
0
LINE
8
0
10
279.25
20
10
11
279.25
21
47
0
LINE
8
0
10
243.25
20
49
11
277.25
21
49
0
LINE
8
0
10
239.75
20
-11
11
258.25
21
-11
0
LINE
8
0
10
260.25
20
-9
11
260.25
21
6
0
LINE
8
0
10
237.75
20
-4
11
237.75
21
-9
0
LINE
8
0
10
218.75
20
-2
11
235.75
21
-2
0
LINE
8
0
10
218.75
20
0
11
218.75
21
-2
0
LINE
8
0
10
241.25
20
51
11
241.25
21
56
0
LINE
8
0
10
239.25
20
58
11
224.25
21
58
0
LINE
8
0
10
205.25
20
2
11
216.75
21
2
0
LINE
8
0
10
222.25
20
60
11
222.25
21
62
0
LINE
8
0
10
222.25
20
62
11
201.75
21
62
0
LINE
8
0
10
199.75
20
60
11
199.75
21
54
0
LINE
8
0
10
183.1628116
20
-8
11
185.75
21
-8
0
LINE
8
0
10
203.25
20
-4
11
203.25
21
0
0
LINE
8
0
10
163.75
20
52
11
197.75
21
52
0
LINE
8
0
10
163.75
20
-8
11
175.9886554
21
-8
0
LINE
8
0
10
161.75
20
-6
11
161.75
21
50
0
LINE
8
0
10
187.4139428
20
-28
11
206.25
21
-28
0
LINE
8
0
10
208.25
20
-26
11
208.25
21
-8
0
LINE
8
0
10
206.25
20
-6
11
205.25
21
-6
0
LINE
8
0
10
185.75
20
-8
11
185.75
21
-20.1717645
0
LINE
8
0
10
165.4184286
20
-32.7382641
11
187.4267496
21
-28.0602511
0
LINE
8
0
10
187.4267496
20
-28.0602511
11
187.4139428
21
-28
0
LINE
8
0
10
185.75
20
-20.1717645
11
183.1628116
21
-8
0
LINE
8
0
10
175.9886554
20
-8
11
162.8006666
21
-10.8031935
0
LINE
8
0
10
161.2601948
20
-13.1753121
11
163.741679
21
-24.8497773
0
LINE
8
0
10
165.4056218
20
-32.678013
11
165.4184286
21
-32.7382641
0
LINE
8
0
10
148.1980273
20
-40.3393278
11
165.4056218
21
-32.678013
0
LINE
8
0
10
163.741679
20
-24.8497773
11
158.7909764
21
-13.7303174
0
LINE
8
0
10
156.1504123
20
-12.7166996
11
139.2498213
21
-20.2413276
0
LINE
8
0
10
138.2362035
20
-22.8818917
11
145.5574632
21
-39.32571
0
ARC
8
0
10
277.25
20
10
40
2
50
270
51
0
0
ARC
8
0
10
277.25
20
47
40
2
50
0
51
90
0
ARC
8
0
10
243.25
20
51
40
2
50
180
51
270
0
ARC
8
0
10
239.25
20
56
40
2
50
0
51
90
0
ARC
8
0
10
224.25
20
60
40
2
50
180
51
270
0
ARC
8
0
10
201.75
20
60
40
2
50
90
51
180
0
ARC
8
0
10
197.75
20
54
40
2
50
270
51
0
0
ARC
8
0
10
163.75
20
50
40
2
50
90
51
180
0
ARC
8
0
10
163.75
20
-6
40
2
50
180
51
270
0
ARC
8
0
10
163.21649
20
-12.7594887
40
2
50
102.0000005
51
192.0000005
0
ARC
8
0
10
156.9638855
20
-14.5437906
40
2
50
23.9999968
51
113.9999968
0
ARC
8
0
10
140.0632945
20
-22.0684185
40
2
50
113.9999968
51
203.9999968
0
ARC
8
0
10
147.3845541
20
-38.5122368
40
2
50
203.9999968
51
293.9999968
0
ARC
8
0
10
206.25
20
-26
40
2
50
270
51
0
0
ARC
8
0
10
206.25
20
-8
40
2
50
0
51
90
0
ARC
8
0
10
205.25
20
-4
40
2
50
180
51
270
0
ARC
8
0
10
205.25
20
0
40
2
50
90
51
180
0
ARC
8
0
10
216.75
20
0
40
2
50
0
51
90
0
ARC
8
0
10
235.75
20
-4
40
2
50
0
51
90
0
ARC
8
0
10
239.75
20
-9
40
2
50
180
51
270
0
ARC
8
0
10
258.25
20
-9
40
2
50
270
51
0
0
ARC
8
0
10
262.25
20
6
40
2
50
90
51
180
0
ENDSEC
0
EOF