0
SECTION
2
HEADER
9
$INSUNITS
70
4
0
ENDSEC
0
SECTION
2
TABLES
0
TABLE
2
LTYPE
0
LTYPE
72
65
70
64
2
CONTINUOUS
3
______
73
0
40
0
0
ENDTAB
0
TABLE
2
LAYER
0
ENDTAB
0
ENDSEC
0
SECTION
2
ENTITIES
0
LINE
8
0
10
266
20
5.25
11
279
21
5.25
0
LINE
8
0
10
282
20
8.25
11
282
21
48.75
0
LINE
8
0
10
247
20
51.75
11
279
21
51.75
0
LINE
8
0
10
238
20
-13.75
11
260
21
-13.75
0
LINE
8
0
10
263
20
-10.75
11
263
21
2.25
0
LINE
8
0
10
235
20
-7.75
11
235
21
-10.75
0
LINE
8
0
10
219
20
-4.75
11
232
21
-4.75
0
LINE
8
0
10
216
20
-0.75
11
216
21
-1.75
0
LINE
8
0
10
244
20
54.75
11
244
21
57.75
0
LINE
8
0
10
241
20
60.75
11
228
21
60.75
0
LINE
8
0
10
215
20
-0.75
11
216
21
-0.75
0
LINE
8
0
10
225
20
63.75
11
225
21
64.75
0
LINE
8
0
10
225
20
64.75
11
200
21
64.75
0
LINE
8
0
10
197
20
61.75
11
197
21
57.75
0
LINE
8
0
10
162
20
54.75
11
194
21
54.75
0
LINE
8
0
10
159
20
-6.489509
11
159
21
51.75
0
LINE
8
0
10
166.2978692
20
-35.3627699
11
181.8100352
21
-32.0655572
0
LINE
8
0
10
147.7178484
20
-43.5633668
11
165.7013945
21
-35.5565762
0
LINE
8
0
10
157.2202098
20
-9.2301454
11
136.5325911
21
-18.4408667
0
LINE
8
0
10
135.0121645
20
-22.4017129
11
143.7570022
21
-42.0429402
0
LINE
8
0
10
212
20
-3.75
11
212
21
-29
0
LINE
8
0
10
209
20
-32
11
182.4337703
21
-32
0
ARC
8
0
10
279
20
8.25
40
3
50
270
51
0
0
ARC
8
0
10
279
20
48.75
40
3
50
0
51
90
0
ARC
8
0
10
247
20
54.75
40
3
50
180
51
270
0
ARC
8
0
10
241
20
57.75
40
3
50
0
51
90
0
ARC
8
0
10
228
20
63.75
40
3
50
180
51
270
0
ARC
8
0
10
200
20
61.75
40
3
50
90
51
180
0
ARC
8
0
10
194
20
57.75
40
3
50
270
51
0
0
ARC
8
0
10
162
20
51.75
40
3
50
90
51
180
0
ARC
8
0
10
156
20
-6.489509
40
3
50
293.9999968
51
0
0
ARC
8
0
10
137.7528009
20
-21.1815032
40
3
50
113.9999968
51
203.9999968
0
ARC
8
0
10
146.4976387
20
-40.8227304
40
3
50
203.9999968
51
293.9999968
0
ARC
8
0
10
166.9216043
20
-38.2972127
40
3
50
102.0000005
51
113.9999968
0
ARC
8
0
10
182.4337703
20
-35
40
3
50
90
51
102.0000005
0
ARC
8
0
10
209
20
-29
40
3
50
270
51
0
0
ARC
8
0
10
215
20
-3.75
40
3
50
90
51
180
0
ARC
8
0
10
219
20
-1.75
40
3
50
180
51
270
0
ARC
8
0
10
232
20
-7.75
40
3
50
0
51
90
0
ARC
8
0
10
238
20
-10.75
40
3
50
180
51
270
0
ARC
8
0
10
260
20
-10.75
40
3
50
270
51
0
0
ARC
8
0
10
266
20
2.25
40
3
50
90
51
180
0
LINE
8
0
10
261
20
12
11
275
21
12
0
LINE
8
0
10
275
20
12
11
275
21
26
0
LINE
8
0
10
275
20
26
11
261
21
26
0
LINE
8
0
10
261
20
26
11
261
21
12
0
LINE
8
0
10
261
20
31
11
275
21
31
0
LINE
8
0
10
275
20
31
11
275
21
45
0
LINE
8
0
10
275
20
45
11
261
21
45
0
LINE
8
0
10
261
20
45
11
261
21
31
0
LINE
8
0
10
242
20
-7
11
256
21
-7
0
LINE
8
0
10
256
20
-7
11
256
21
7
0
LINE
8
0
10
256
20
7
11
242
21
7
0
LINE
8
0
10
242
20
7
11
242
21
-7
0
LINE
8
0
10
242
20
12
11
256
21
12
0
LINE
8
0
10
256
20
12
11
256
21
26
0
LINE
8
0
10
256
20
26
11
242
21
26
0
LINE
8
0
10
242
20
26
11
242
21
12
0
LINE
8
0
10
242
20
31
11
256
21
31
0
LINE
8
0
10
256
20
31
11
256
21
45
0
LINE
8
0
10
256
20
45
11
242
21
45
0
LINE
8
0
10
242
20
45
11
242
21
31
0
LINE
8
0
10
223
20
2
11
237
21
2
0
LINE
8
0
10
237
20
2
11
237
21
16
0
LINE
8
0
10
237
20
16
11
223
21
16
0
LINE
8
0
10
223
20
16
11
223
21
2
0
LINE
8
0
10
223
20
21
11
237
21
21
0
LINE
8
0
10
237
20
21
11
237
21
35
0
LINE
8
0
10
237
20
35
11
223
21
35
0
LINE
8
0
10
223
20
35
11
223
21
21
0
LINE
8
0
10
223
20
40
11
237
21
40
0
LINE
8
0
10
237
20
40
11
237
21
54
0
LINE
8
0
10
237
20
54
11
223
21
54
0
LINE
8
0
10
223
20
54
11
223
21
40
0
LINE
8
0
10
204
20
6
11
218
21
6
0
LINE
8
0
10
218
20
6
11
218
21
20
0
LINE
8
0
10
218
20
20
11
204
21
20
0
LINE
8
0
10
204
20
20
11
204
21
6
0
LINE
8
0
10
204
20
25
11
218
21
25
0
LINE
8
0
10
218
20
25
11
218
21
39
0
LINE
8
0
10
218
20
39
11
204
21
39
0
LINE
8
0
10
204
20
39
11
204
21
25
0
LINE
8
0
10
204
20
44
11
218
21
44
0
LINE
8
0
10
218
20
44
11
218
21
58
0
LINE
8
0
10
218
20
58
11
204
21
58
0
LINE
8
0
10
204
20
58
11
204
21
44
0
LINE
8
0
10
185
20
-4
11
199
21
-4
0
LINE
8
0
10
199
20
-4
11
199
21
10
0
LINE
8
0
10
199
20
10
11
185
21
10
0
LINE
8
0
10
185
20
10
11
185
21
-4
0
LINE
8
0
10
185
20
15
11
199
21
15
0
LINE
8
0
10
199
20
15
11
199
21
29
0
LINE
8
0
10
199
20
29
11
185
21
29
0
LINE
8
0
10
185
20
29
11
185
21
15
0
LINE
8
0
10
185
20
34
11
199
21
34
0
LINE
8
0
10
199
20
34
11
199
21
48
0
LINE
8
0
10
199
20
48
11
185
21
48
0
LINE
8
0
10
185
20
48
11
185
21
34
0
LINE
8
0
10
166
20
-4
11
180
21
-4
0
LINE
8
0
10
180
20
-4
11
180
21
10
0
LINE
8
0
10
180
20
10
11
166
21
10
0
LINE
8
0
10
166
20
10
11
166
21
-4
0
LINE
8
0
10
166
20
15
11
180
21
15
0
LINE
8
0
10
180
20
15
11
180
21
29
0
LINE
8
0
10
180
20
29
11
166
21
29
0
LINE
8
0
10
166
20
29
11
166
21
15
0
LINE
8
0
10
166
20
34
11
180
21
34
0
LINE
8
0
10
180
20
34
11
180
21
48
0
LINE
8
0
10
180
20
48
11
166
21
48
0
LINE
8
0
10
166
20
48
11
166
21
34
0
LINE
8
0
10
190
20
-24
11
204
21
-24
0
LINE
8
0
10
204
20
-24
11
204
21
-10
0
LINE
8
0
10
204
20
-10
11
190
21
-10
0
LINE
8
0
10
190
20
-10
11
190
21
-24
0
LINE
8
0
10
168.7439091
20
-27.942049
11
182.4379755
21
-25.0312854
0
LINE
8
0
10
182.4379755
20
-25.0312854
11
179.5272119
21
-11.337219
0
LINE
8
0
10
179.5272119
20
-11.337219
11
165.8331455
21
-14.2479826
0
LINE
8
0
10
165.8331455
20
-14.2479826
11
168.7439091
21
-27.942049
0
LINE
8
0
10
148.6265581
20
-35.7699884
11
161.4161945
21
-30.0756754
0
LINE
8
0
10
161.4161945
20
-30.0756754
11
155.7218815
21
-17.286039
0
LINE
8
0
10
155.7218815
20
-17.286039
11
142.9322451
21
-22.980352
0
LINE
8
0
10
142.9322451
20
-22.980352
11
148.6265581
21
-35.7699884
0
ENDSEC
0
EOF