0
SECTION
2
HEADER
9
$INSUNITS
70
4
0
ENDSEC
0
SECTION
2
TABLES
0
TABLE
2
LTYPE
0
LTYPE
72
65
70
64
2
CONTINUOUS
3
______
73
0
40
0
0
ENDTAB
0
TABLE
2
LAYER
0
ENDTAB
0
ENDSEC
0
SECTION
2
ENTITIES
0
LINE
8
0
10
64.75
20
-4
11
64.75
21
0
0
LINE
8
0
10
106.25
20
-7.9864365
11
106.25
21
-6
0
LINE
8
0
10
59.75
20
-6
11
62.75
21
-6
0
LINE
8
0
10
59.75
20
-6
11
59.75
21
-8
0
LINE
8
0
10
106.25
20
-7.9864365
11
106.3
21
-8
0
LINE
8
0
10
106.3
20
-8
11
109.4352754
21
-11.352138
0
LINE
8
0
10
110.3930357
20
-12.0376683
11
115.7256379
21
-14.4423912
0
ARC
8
0
10
4.75
20
5
40
3
50
0
51
90
0
ARC
8
0
10
33.25
20
-5
40
3
50
90
51
180
0
ARC
8
0
10
61.75
20
-1
40
3
50
0
51
90
0
ARC
8
0
10
61.75
20
-3
40
3
50
270
51
0
0
ARC
8
0
10
116.9588861
20
-11.7075971
40
3
50
245.7271322
51
245.9852064
0
ARC
8
0
10
111.6262838
20
-9.3028742
40
3
50
223.085419
51
245.7271322
0
ARC
8
0
10
71.25
20
55
40
3
50
180
51
270
0
ARC
8
0
10
23.75
20
52
40
3
50
270
51
0
0
LINE
8
0
10
4.75
20
8
11
5.75
21
8
0
LINE
8
0
10
23.75
20
49
11
24.75
21
49
0
LINE
8
0
10
30.25
20
-5
11
30.25
21
-4
0
LINE
8
0
10
7.75
20
6
11
7.75
21
5
0
LINE
8
0
10
32.25
20
-2
11
33.25
21
-2
0
LINE
8
0
10
26.75
20
52
11
26.75
21
51
0
LINE
8
0
10
61.75
20
2
11
62.75
21
2
0
LINE
8
0
10
68.25
20
54
11
68.25
21
55
0
LINE
8
0
10
82.25
20
-8
11
84.8371884
21
-8
0
LINE
8
0
10
70.25
20
52
11
71.25
21
52
0
LINE
8
0
10
92.0113446
20
-8
11
104.25
21
-8
0
LINE
8
0
10
82.25
20
-20.1717645
11
82.25
21
-8
0
LINE
8
0
10
104.258321
20
-24.8497773
11
106.7398052
21
-13.1753121
0
LINE
8
0
10
105.1993334
20
-10.8031935
11
92.0113446
21
-8
0
LINE
8
0
10
84.8371884
20
-8
11
82.25
21
-20.1717645
0
LINE
8
0
10
115.7386763
20
-14.4482335
11
115.7379686
21
-14.4479183
0
LINE
8
0
10
115.7379686
20
-14.4479183
11
111.8495877
21
-12.7166996
0
LINE
8
0
10
109.2090236
20
-13.7303174
11
104.258321
21
-24.8497773
0
ARC
8
0
10
5.75
20
6
40
2
50
0
51
90
0
ARC
8
0
10
32.25
20
-4
40
2
50
90
51
180
0
ARC
8
0
10
62.75
20
0
40
2
50
0
51
90
0
ARC
8
0
10
62.75
20
-4
40
2
50
270
51
0
0
ARC
8
0
10
61.75
20
-8
40
2
50
90
51
180
0
ARC
8
0
10
111.0361145
20
-14.5437906
40
2
50
66.0000032
51
156.0000032
0
ARC
8
0
10
104.78351
20
-12.7594887
40
2
50
347.9999995
51
77.9999995
0
ARC
8
0
10
104.25
20
-6
40
2
50
270
51
0
0
ARC
8
0
10
70.25
20
54
40
2
50
180
51
270
0
ARC
8
0
10
24.75
20
51
40
2
50
270
51
0
0
ENDSEC
0
EOF