0
SECTION
2
HEADER
9
$INSUNITS
70
4
0
ENDSEC
0
SECTION
2
TABLES
0
TABLE
2
LTYPE
0
LTYPE
72
65
70
64
2
CONTINUOUS
3
______
73
0
40
0
0
ENDTAB
0
TABLE
2
LAYER
0
ENDTAB
0
ENDSEC
0
SECTION
2
ENTITIES
0
LINE
8
0
10
-11
20
6.25
11
4
21
6.25
0
LINE
8
0
10
-13
20
8.25
11
-13
21
48.75
0
LINE
8
0
10
-11
20
50.75
11
23
21
50.75
0
LINE
8
0
10
8
20
-12.75
11
30
21
-12.75
0
LINE
8
0
10
32
20
-10.75
11
32
21
-5.75
0
LINE
8
0
10
6
20
4.25
11
6
21
-10.75
0
LINE
8
0
10
34
20
-3.75
11
49
21
-3.75
0
LINE
8
0
10
51
20
-1.75
11
51
21
0.25
0
LINE
8
0
10
44
20
59.75
11
27
21
59.75
0
LINE
8
0
10
25
20
57.75
11
25
21
52.75
0
LINE
8
0
10
51
20
0.25
11
56
21
0.25
0
LINE
8
0
10
70
20
55.75
11
70
21
61.75
0
LINE
8
0
10
68
20
63.75
11
46
21
63.75
0
LINE
8
0
10
44
20
61.75
11
44
21
59.75
0
LINE
8
0
10
72
20
53.75
11
106
21
53.75
0
LINE
8
0
10
108
20
-6.9159992
11
108
21
51.75
0
LINE
8
0
10
58
20
-30
11
58
21
-1.75
0
LINE
8
0
10
90.8968916
20
-32.0437048
11
102.1156574
21
-34.4283271
0
LINE
8
0
10
102.5133072
20
-34.5575313
11
120.6888882
21
-42.6498214
0
LINE
8
0
10
123.3294523
20
-41.6362036
11
132.0742901
21
-21.9949763
0
LINE
8
0
10
131.0606723
20
-19.3544122
11
109.1355814
21
-9.5927328
0
LINE
8
0
10
109.1355814
20
-9.5927328
11
109.1226928
21
-9.6216811
0
LINE
8
0
10
108.2134904
20
-7.8151006
11
109.1226928
21
-9.6216811
0
LINE
8
0
10
60
20
-32
11
90.4810682
21
-32
0
ARC
8
0
10
4
20
4.25
40
2
50
0
51
90
0
ARC
8
0
10
8
20
-10.75
40
2
50
180
51
270
0
ARC
8
0
10
30
20
-10.75
40
2
50
270
51
0
0
ARC
8
0
10
34
20
-5.75
40
2
50
90
51
180
0
ARC
8
0
10
49
20
-1.75
40
2
50
270
51
0
0
ARC
8
0
10
56
20
-1.75
40
2
50
0
51
90
0
ARC
8
0
10
60
20
-30
40
2
50
180
51
270
0
ARC
8
0
10
90.4810682
20
-34
40
2
50
77.9999995
51
90
0
ARC
8
0
10
101.699834
20
-36.3846223
40
2
50
66.0000032
51
77.9999995
0
ARC
8
0
10
121.5023614
20
-40.8227304
40
2
50
246.0000032
51
336.0000032
0
ARC
8
0
10
130.2471991
20
-21.1815031
40
2
50
336.0000032
51
66.0000032
0
ARC
8
0
10
110
20
-6.9159992
40
2
50
180
51
206.7148614
0
ARC
8
0
10
106
20
51.75
40
2
50
0
51
90
0
ARC
8
0
10
72
20
55.75
40
2
50
180
51
270
0
ARC
8
0
10
68
20
61.75
40
2
50
0
51
90
0
ARC
8
0
10
46
20
61.75
40
2
50
90
51
180
0
ARC
8
0
10
27
20
57.75
40
2
50
90
51
180
0
ARC
8
0
10
23
20
52.75
40
2
50
270
51
0
0
ARC
8
0
10
-11
20
48.75
40
2
50
90
51
180
0
ARC
8
0
10
-11
20
8.25
40
2
50
180
51
270
0
ENDSEC
0
EOF