0
SECTION
2
HEADER
9
$INSUNITS
70
4
0
ENDSEC
0
SECTION
2
TABLES
0
TABLE
2
LTYPE
0
LTYPE
72
65
70
64
2
CONTINUOUS
3
______
73
0
40
0
0
ENDTAB
0
TABLE
2
LAYER
0
ENDTAB
0
ENDSEC
0
SECTION
2
ENTITIES
0
LINE
8
0
10
264
20
6.25
11
279
21
6.25
0
LINE
8
0
10
281
20
8.25
11
281
21
48.75
0
LINE
8
0
10
245
20
50.75
11
279
21
50.75
0
LINE
8
0
10
238
20
-12.75
11
260
21
-12.75
0
LINE
8
0
10
262
20
-10.75
11
262
21
4.25
0
LINE
8
0
10
236
20
-5.75
11
236
21
-10.75
0
LINE
8
0
10
217
20
-3.75
11
234
21
-3.75
0
LINE
8
0
10
217
20
-1.75
11
217
21
-3.75
0
LINE
8
0
10
243
20
52.75
11
243
21
57.75
0
LINE
8
0
10
241
20
59.75
11
226
21
59.75
0
LINE
8
0
10
212
20
0.25
11
215
21
0.25
0
LINE
8
0
10
224
20
61.75
11
224
21
63.75
0
LINE
8
0
10
224
20
63.75
11
200
21
63.75
0
LINE
8
0
10
198
20
61.75
11
198
21
55.75
0
LINE
8
0
10
162
20
53.75
11
196
21
53.75
0
LINE
8
0
10
160
20
-6.9159992
11
160
21
51.75
0
LINE
8
0
10
210
20
-30
11
210
21
-1.75
0
LINE
8
0
10
165.8843426
20
-34.4283271
11
177.1031084
21
-32.0437048
0
LINE
8
0
10
147.3111118
20
-42.6498214
11
165.4866928
21
-34.5575313
0
LINE
8
0
10
158.8773072
20
-9.6216811
11
158.8644186
21
-9.5927328
0
LINE
8
0
10
158.8644186
20
-9.5927328
11
136.9393277
21
-19.3544122
0
LINE
8
0
10
135.9257099
20
-21.9949763
11
144.6705477
21
-41.6362036
0
LINE
8
0
10
159.7865096
20
-7.8151006
11
158.8773072
21
-9.6216811
0
LINE
8
0
10
208
20
-32
11
177.5189318
21
-32
0
ARC
8
0
10
279
20
8.25
40
2
50
270
51
0
0
ARC
8
0
10
279
20
48.75
40
2
50
0
51
90
0
ARC
8
0
10
245
20
52.75
40
2
50
180
51
270
0
ARC
8
0
10
241
20
57.75
40
2
50
0
51
90
0
ARC
8
0
10
226
20
61.75
40
2
50
180
51
270
0
ARC
8
0
10
200
20
61.75
40
2
50
90
51
180
0
ARC
8
0
10
196
20
55.75
40
2
50
270
51
0
0
ARC
8
0
10
162
20
51.75
40
2
50
90
51
180
0
ARC
8
0
10
158
20
-6.9159992
40
2
50
333.2851386
51
0
0
ARC
8
0
10
137.7528009
20
-21.1815031
40
2
50
113.9999968
51
203.9999968
0
ARC
8
0
10
146.4976386
20
-40.8227304
40
2
50
203.9999968
51
293.9999968
0
ARC
8
0
10
166.300166
20
-36.3846223
40
2
50
102.0000005
51
113.9999968
0
ARC
8
0
10
177.5189318
20
-34
40
2
50
90
51
102.0000005
0
ARC
8
0
10
208
20
-30
40
2
50
270
51
0
0
ARC
8
0
10
212
20
-1.75
40
2
50
90
51
180
0
ARC
8
0
10
215
20
-1.75
40
2
50
0
51
90
0
ARC
8
0
10
234
20
-5.75
40
2
50
0
51
90
0
ARC
8
0
10
238
20
-10.75
40
2
50
180
51
270
0
ARC
8
0
10
260
20
-10.75
40
2
50
270
51
0
0
ARC
8
0
10
264
20
4.25
40
2
50
90
51
180
0
ENDSEC
0
EOF