0
SECTION
2
HEADER
9
$INSUNITS
70
4
0
ENDSEC
0
SECTION
2
TABLES
0
TABLE
2
LTYPE
0
LTYPE
72
65
70
64
2
CONTINUOUS
3
______
73
0
40
0
0
ENDTAB
0
TABLE
2
LAYER
0
ENDTAB
0
ENDSEC
0
SECTION
2
ENTITIES
0
LINE
8
0
10
265.25
20
6
11
278.25
21
6
0
LINE
8
0
10
281.25
20
9
11
281.25
21
48
0
LINE
8
0
10
246.25
20
51
11
278.25
21
51
0
LINE
8
0
10
238.75
20
-13
11
259.25
21
-13
0
LINE
8
0
10
262.25
20
-10
11
262.25
21
3
0
LINE
8
0
10
235.75
20
-7
11
235.75
21
-10
0
LINE
8
0
10
216.75
20
-4
11
232.75
21
-4
0
LINE
8
0
10
216.75
20
-3
11
216.75
21
-4
0
LINE
8
0
10
243.25
20
54
11
243.25
21
57
0
LINE
8
0
10
240.25
20
60
11
227.25
21
60
0
LINE
8
0
10
208.25
20
0
11
213.75
21
0
0
LINE
8
0
10
224.25
20
63
11
224.25
21
64
0
LINE
8
0
10
224.25
20
64
11
200.75
21
64
0
LINE
8
0
10
197.75
20
61
11
197.75
21
57
0
LINE
8
0
10
205.25
20
-4
11
205.25
21
-3
0
LINE
8
0
10
162.75
20
54
11
194.75
21
54
0
LINE
8
0
10
159.75
20
-9.4069515
11
159.75
21
51
0
LINE
8
0
10
188.2357299
20
-30
11
207.25
21
-30
0
LINE
8
0
10
210.25
20
-27
11
210.25
21
-7
0
LINE
8
0
10
207.25
20
-4
11
205.25
21
-4
0
LINE
8
0
10
166.0648301
20
-34.6455484
11
187.6119948
21
-30.0655572
0
LINE
8
0
10
159.75
20
-9.4069515
11
159.1154171
21
-9.5418363
0
LINE
8
0
10
148.097955
20
-42.5731553
11
165.4683554
21
-34.8393548
0
LINE
8
0
10
159.1154171
20
-9.5418363
11
158.9911208
21
-9.2626622
0
LINE
8
0
10
158.9911208
20
-9.2626622
11
137.5228026
21
-18.8209733
0
LINE
8
0
10
136.002376
20
-22.7818195
11
144.1371088
21
-41.0527287
0
ARC
8
0
10
278.25
20
9
40
3
50
270
51
0
0
ARC
8
0
10
278.25
20
48
40
3
50
0
51
90
0
ARC
8
0
10
246.25
20
54
40
3
50
180
51
270
0
ARC
8
0
10
240.25
20
57
40
3
50
0
51
90
0
ARC
8
0
10
227.25
20
63
40
3
50
180
51
270
0
ARC
8
0
10
200.75
20
61
40
3
50
90
51
180
0
ARC
8
0
10
194.75
20
57
40
3
50
270
51
0
0
ARC
8
0
10
162.75
20
51
40
3
50
90
51
180
0
ARC
8
0
10
138.7430124
20
-21.5616097
40
3
50
113.9999968
51
203.9999968
0
ARC
8
0
10
146.8777453
20
-39.8325189
40
3
50
203.9999968
51
293.9999968
0
ARC
8
0
10
166.6885652
20
-37.5799912
40
3
50
102.0000005
51
113.9999968
0
ARC
8
0
10
188.2357299
20
-33
40
3
50
90
51
102.0000005
0
ARC
8
0
10
207.25
20
-27
40
3
50
270
51
0
0
ARC
8
0
10
207.25
20
-7
40
3
50
0
51
90
0
ARC
8
0
10
208.25
20
-3
40
3
50
90
51
180
0
ARC
8
0
10
213.75
20
-3
40
3
50
0
51
90
0
ARC
8
0
10
232.75
20
-7
40
3
50
0
51
90
0
ARC
8
0
10
238.75
20
-10
40
3
50
180
51
270
0
ARC
8
0
10
259.25
20
-10
40
3
50
270
51
0
0
ARC
8
0
10
265.25
20
3
40
3
50
90
51
180
0
ENDSEC
0
EOF