0
SECTION
2
HEADER
9
$INSUNITS
70
4
0
ENDSEC
0
SECTION
2
TABLES
0
TABLE
2
LTYPE
0
LTYPE
72
65
70
64
2
CONTINUOUS
3
______
73
0
40
0
0
ENDTAB
0
TABLE
2
LAYER
0
ENDTAB
0
ENDSEC
0
SECTION
2
ENTITIES
0
LINE
8
0
10
-11
20
5.25
11
2
21
5.25
0
LINE
8
0
10
-14
20
8.25
11
-14
21
48.75
0
LINE
8
0
10
-11
20
51.75
11
21
21
51.75
0
LINE
8
0
10
8
20
-13.75
11
30
21
-13.75
0
LINE
8
0
10
33
20
-10.75
11
33
21
-7.75
0
LINE
8
0
10
5
20
2.25
11
5
21
-10.75
0
LINE
8
0
10
36
20
-4.75
11
49
21
-4.75
0
LINE
8
0
10
52
20
-1.75
11
52
21
-0.75
0
LINE
8
0
10
43
20
60.75
11
27
21
60.75
0
LINE
8
0
10
24
20
57.75
11
24
21
54.75
0
LINE
8
0
10
52
20
-0.75
11
53
21
-0.75
0
LINE
8
0
10
71
20
57.75
11
71
21
61.75
0
LINE
8
0
10
68
20
64.75
11
46
21
64.75
0
LINE
8
0
10
43
20
61.75
11
43
21
60.75
0
LINE
8
0
10
74
20
54.75
11
106
21
54.75
0
LINE
8
0
10
109
20
-6.489509
11
109
21
51.75
0
LINE
8
0
10
86.1899648
20
-32.0655572
11
101.7021308
21
-35.3627699
0
LINE
8
0
10
102.2986055
20
-35.5565762
11
120.2821516
21
-43.5633668
0
LINE
8
0
10
124.2429978
20
-42.0429402
11
132.9878355
21
-22.4017129
0
LINE
8
0
10
131.4674089
20
-18.4408667
11
110.7797902
21
-9.2301454
0
LINE
8
0
10
56
20
-3.75
11
56
21
-29
0
LINE
8
0
10
59
20
-32
11
85.5662297
21
-32
0
ARC
8
0
10
2
20
2.25
40
3
50
0
51
90
0
ARC
8
0
10
8
20
-10.75
40
3
50
180
51
270
0
ARC
8
0
10
30
20
-10.75
40
3
50
270
51
0
0
ARC
8
0
10
36
20
-7.75
40
3
50
90
51
180
0
ARC
8
0
10
49
20
-1.75
40
3
50
270
51
0
0
ARC
8
0
10
53
20
-3.75
40
3
50
0
51
90
0
ARC
8
0
10
59
20
-29
40
3
50
180
51
270
0
ARC
8
0
10
85.5662297
20
-35
40
3
50
77.9999995
51
90
0
ARC
8
0
10
101.0783957
20
-38.2972127
40
3
50
66.0000032
51
77.9999995
0
ARC
8
0
10
121.5023613
20
-40.8227304
40
3
50
246.0000032
51
336.0000032
0
ARC
8
0
10
130.2471991
20
-21.1815032
40
3
50
336.0000032
51
66.0000032
0
ARC
8
0
10
112
20
-6.489509
40
3
50
180
51
246.0000032
0
ARC
8
0
10
106
20
51.75
40
3
50
0
51
90
0
ARC
8
0
10
74
20
57.75
40
3
50
180
51
270
0
ARC
8
0
10
68
20
61.75
40
3
50
0
51
90
0
ARC
8
0
10
46
20
61.75
40
3
50
90
51
180
0
ARC
8
0
10
27
20
57.75
40
3
50
90
51
180
0
ARC
8
0
10
21
20
54.75
40
3
50
270
51
0
0
ARC
8
0
10
-11
20
48.75
40
3
50
90
51
180
0
ARC
8
0
10
-11
20
8.25
40
3
50
180
51
270
0
ENDSEC
0
EOF